<svg xmlns="http://www.w3.org/2000/svg" width="1340" height="680" viewBox="0 0 1340 680" fill="none">
<path d="M1339.23 530C1339.23 612.418 1272.42 679.231 1190 679.231C1107.58 679.231 1040.77 612.418 1040.77 530C1040.77 447.582 1107.58 380.769 1190 380.769C1272.42 380.769 1339.23 447.582 1339.23 530Z" fill="url(#paint0_linear_1019_2550)"/>
<path d="M1118.81 599V581.5H1120.66V599H1118.81ZM1142.38 585.75C1145.58 585.75 1147.68 587.6 1147.68 591.375V599H1145.91V591.55C1145.91 588.775 1144.51 587.35 1142.13 587.35C1139.43 587.35 1137.73 589.1 1137.73 592.1V599H1135.96V591.55C1135.96 588.775 1134.56 587.35 1132.16 587.35C1129.48 587.35 1127.76 589.1 1127.76 592.1V599H1125.98V585.85H1127.68V588.25C1128.61 586.675 1130.31 585.75 1132.51 585.75C1134.68 585.75 1136.38 586.675 1137.18 588.525C1138.13 586.825 1140.01 585.75 1142.38 585.75ZM1159.27 585.75C1163.02 585.75 1165.82 588.45 1165.82 592.425C1165.82 596.425 1163.02 599.125 1159.27 599.125C1157.17 599.125 1155.37 598.225 1154.27 596.525V603.85H1152.5V585.85H1154.2V588.45C1155.27 586.7 1157.1 585.75 1159.27 585.75ZM1159.15 597.55C1161.92 597.55 1164.05 595.5 1164.05 592.425C1164.05 589.375 1161.92 587.3 1159.15 587.3C1156.35 587.3 1154.25 589.375 1154.25 592.425C1154.25 595.5 1156.35 597.55 1159.15 597.55ZM1169.44 599V580.45H1171.22V599H1169.44ZM1187.63 592.425C1187.63 592.575 1187.6 592.775 1187.6 592.975H1176.6C1176.8 595.725 1178.9 597.55 1181.78 597.55C1183.38 597.55 1184.8 596.975 1185.8 595.825L1186.8 596.975C1185.63 598.375 1183.8 599.125 1181.73 599.125C1177.63 599.125 1174.83 596.325 1174.83 592.425C1174.83 588.525 1177.55 585.75 1181.25 585.75C1184.95 585.75 1187.63 588.475 1187.63 592.425ZM1181.25 587.275C1178.7 587.275 1176.83 589.075 1176.6 591.65H1185.93C1185.7 589.075 1183.83 587.275 1181.25 587.275ZM1207.64 585.75C1210.84 585.75 1212.94 587.6 1212.94 591.375V599H1211.17V591.55C1211.17 588.775 1209.77 587.35 1207.39 587.35C1204.69 587.35 1202.99 589.1 1202.99 592.1V599H1201.22V591.55C1201.22 588.775 1199.82 587.35 1197.42 587.35C1194.74 587.35 1193.02 589.1 1193.02 592.1V599H1191.24V585.85H1192.94V588.25C1193.87 586.675 1195.57 585.75 1197.77 585.75C1199.94 585.75 1201.64 586.675 1202.44 588.525C1203.39 586.825 1205.27 585.75 1207.64 585.75ZM1229.28 592.425C1229.28 592.575 1229.25 592.775 1229.25 592.975H1218.25C1218.45 595.725 1220.55 597.55 1223.43 597.55C1225.03 597.55 1226.45 596.975 1227.45 595.825L1228.45 596.975C1227.28 598.375 1225.45 599.125 1223.38 599.125C1219.28 599.125 1216.48 596.325 1216.48 592.425C1216.48 588.525 1219.2 585.75 1222.9 585.75C1226.6 585.75 1229.28 588.475 1229.28 592.425ZM1222.9 587.275C1220.35 587.275 1218.48 589.075 1218.25 591.65H1227.58C1227.35 589.075 1225.48 587.275 1222.9 587.275ZM1239.59 585.75C1242.79 585.75 1244.99 587.6 1244.99 591.375V599H1243.22V591.55C1243.22 588.775 1241.77 587.35 1239.27 587.35C1236.44 587.35 1234.67 589.1 1234.67 592.1V599H1232.89V585.85H1234.59V588.275C1235.54 586.675 1237.32 585.75 1239.59 585.75ZM1256.11 596.925L1256.74 598.2C1256.04 598.825 1254.99 599.125 1253.96 599.125C1251.49 599.125 1250.11 597.725 1250.11 595.3V587.35H1247.76V585.85H1250.11V582.975H1251.89V585.85H1255.89V587.35H1251.89V595.2C1251.89 596.75 1252.69 597.6 1254.16 597.6C1254.89 597.6 1255.61 597.375 1256.11 596.925ZM1121.8 629.15C1119.17 629.15 1116.6 628.225 1115.3 626.875L1116.02 625.45C1117.27 626.675 1119.5 627.575 1121.8 627.575C1125.07 627.575 1126.5 626.2 1126.5 624.475C1126.5 619.675 1115.72 622.625 1115.72 616.15C1115.72 613.575 1117.72 611.35 1122.17 611.35C1124.15 611.35 1126.2 611.925 1127.6 612.9L1126.97 614.375C1125.47 613.4 1123.72 612.925 1122.17 612.925C1118.97 612.925 1117.55 614.35 1117.55 616.1C1117.55 620.9 1128.32 618 1128.32 624.375C1128.32 626.95 1126.27 629.15 1121.8 629.15ZM1142.05 615.85H1143.83V629H1142.13V626.6C1141.2 628.2 1139.5 629.125 1137.4 629.125C1134.05 629.125 1131.85 627.25 1131.85 623.475V615.85H1133.63V623.3C1133.63 626.1 1135.08 627.525 1137.58 627.525C1140.33 627.525 1142.05 625.75 1142.05 622.75V615.85ZM1154.25 629.125C1150.32 629.125 1147.47 626.35 1147.47 622.425C1147.47 618.5 1150.32 615.75 1154.25 615.75C1156.47 615.75 1158.35 616.625 1159.4 618.35L1158.07 619.25C1157.17 617.925 1155.77 617.3 1154.25 617.3C1151.37 617.3 1149.27 619.35 1149.27 622.425C1149.27 625.525 1151.37 627.55 1154.25 627.55C1155.77 627.55 1157.17 626.95 1158.07 625.625L1159.4 626.525C1158.35 628.225 1156.47 629.125 1154.25 629.125ZM1168.12 629.125C1164.19 629.125 1161.34 626.35 1161.34 622.425C1161.34 618.5 1164.19 615.75 1168.12 615.75C1170.34 615.75 1172.22 616.625 1173.27 618.35L1171.94 619.25C1171.04 617.925 1169.64 617.3 1168.12 617.3C1165.24 617.3 1163.14 619.35 1163.14 622.425C1163.14 625.525 1165.24 627.55 1168.12 627.55C1169.64 627.55 1171.04 626.95 1171.94 625.625L1173.27 626.525C1172.22 628.225 1170.34 629.125 1168.12 629.125ZM1188.01 622.425C1188.01 622.575 1187.98 622.775 1187.98 622.975H1176.98C1177.18 625.725 1179.28 627.55 1182.16 627.55C1183.76 627.55 1185.18 626.975 1186.18 625.825L1187.18 626.975C1186.01 628.375 1184.18 629.125 1182.11 629.125C1178.01 629.125 1175.21 626.325 1175.21 622.425C1175.21 618.525 1177.93 615.75 1181.63 615.75C1185.33 615.75 1188.01 618.475 1188.01 622.425ZM1181.63 617.275C1179.08 617.275 1177.21 619.075 1176.98 621.65H1186.31C1186.08 619.075 1184.21 617.275 1181.63 617.275ZM1195.15 629.125C1192.97 629.125 1190.87 628.425 1189.8 627.5L1190.6 626.1C1191.65 626.925 1193.42 627.575 1195.27 627.575C1197.77 627.575 1198.8 626.725 1198.8 625.425C1198.8 622 1190.27 624.7 1190.27 619.5C1190.27 617.35 1192.12 615.75 1195.47 615.75C1197.17 615.75 1199.02 616.225 1200.12 616.975L1199.35 618.4C1198.2 617.6 1196.82 617.275 1195.47 617.275C1193.1 617.275 1192.05 618.2 1192.05 619.45C1192.05 623 1200.57 620.325 1200.57 625.375C1200.57 627.65 1198.57 629.125 1195.15 629.125ZM1207.38 629.125C1205.2 629.125 1203.1 628.425 1202.03 627.5L1202.83 626.1C1203.88 626.925 1205.65 627.575 1207.5 627.575C1210 627.575 1211.03 626.725 1211.03 625.425C1211.03 622 1202.5 624.7 1202.5 619.5C1202.5 617.35 1204.35 615.75 1207.7 615.75C1209.4 615.75 1211.25 616.225 1212.35 616.975L1211.58 618.4C1210.43 617.6 1209.05 617.275 1207.7 617.275C1205.33 617.275 1204.28 618.2 1204.28 619.45C1204.28 623 1212.8 620.325 1212.8 625.375C1212.8 627.65 1210.8 629.125 1207.38 629.125ZM1220.43 611.825C1218.91 611.825 1218.11 612.675 1218.11 614.3V615.85H1222.16V617.35H1218.16V629H1216.38V617.35H1214.03V615.85H1216.38V614.225C1216.38 611.875 1217.78 610.325 1220.36 610.325C1221.33 610.325 1222.33 610.6 1222.98 611.15L1222.38 612.475C1221.88 612.05 1221.18 611.825 1220.43 611.825ZM1234.63 615.85H1236.41V629H1234.71V626.6C1233.78 628.2 1232.08 629.125 1229.98 629.125C1226.63 629.125 1224.43 627.25 1224.43 623.475V615.85H1226.21V623.3C1226.21 626.1 1227.66 627.525 1230.16 627.525C1232.91 627.525 1234.63 625.75 1234.63 622.75V615.85ZM1241.38 629V610.45H1243.15V629H1241.38ZM1248.09 629V610.45H1249.87V629H1248.09ZM1264.1 615.85H1265.85L1259.28 630.575C1258.18 633.15 1256.78 633.975 1254.9 633.975C1253.68 633.975 1252.5 633.575 1251.7 632.775L1252.53 631.45C1253.18 632.1 1253.98 632.45 1254.93 632.45C1256.1 632.45 1256.9 631.9 1257.65 630.25L1258.23 628.975L1252.35 615.85H1254.2L1259.15 627.025L1264.1 615.85Z" fill="black"/>
<path d="M1131.25 516.75V511.55H1141.65V548H1135.9V516.75H1131.25ZM1149.48 529.3C1149.48 523.533 1150.45 519.033 1152.38 515.8C1154.35 512.533 1157.71 510.9 1162.48 510.9C1167.25 510.9 1170.6 512.533 1172.53 515.8C1174.5 519.033 1175.48 523.533 1175.48 529.3C1175.48 535.133 1174.5 539.7 1172.53 543C1170.6 546.267 1167.25 547.9 1162.48 547.9C1157.71 547.9 1154.35 546.267 1152.38 543C1150.45 539.7 1149.48 535.133 1149.48 529.3ZM1169.88 529.3C1169.88 526.6 1169.7 524.317 1169.33 522.45C1169 520.583 1168.3 519.067 1167.23 517.9C1166.16 516.7 1164.58 516.1 1162.48 516.1C1160.38 516.1 1158.8 516.7 1157.73 517.9C1156.66 519.067 1155.95 520.583 1155.58 522.45C1155.25 524.317 1155.08 526.6 1155.08 529.3C1155.08 532.1 1155.25 534.45 1155.58 536.35C1155.91 538.25 1156.61 539.783 1157.68 540.95C1158.78 542.117 1160.38 542.7 1162.48 542.7C1164.58 542.7 1166.16 542.117 1167.23 540.95C1168.33 539.783 1169.05 538.25 1169.38 536.35C1169.71 534.45 1169.88 532.1 1169.88 529.3ZM1181.51 529.3C1181.51 523.533 1182.48 519.033 1184.41 515.8C1186.38 512.533 1189.75 510.9 1194.51 510.9C1199.28 510.9 1202.63 512.533 1204.56 515.8C1206.53 519.033 1207.51 523.533 1207.51 529.3C1207.51 535.133 1206.53 539.7 1204.56 543C1202.63 546.267 1199.28 547.9 1194.51 547.9C1189.75 547.9 1186.38 546.267 1184.41 543C1182.48 539.7 1181.51 535.133 1181.51 529.3ZM1201.91 529.3C1201.91 526.6 1201.73 524.317 1201.36 522.45C1201.03 520.583 1200.33 519.067 1199.26 517.9C1198.2 516.7 1196.61 516.1 1194.51 516.1C1192.41 516.1 1190.83 516.7 1189.76 517.9C1188.7 519.067 1187.98 520.583 1187.61 522.45C1187.28 524.317 1187.11 526.6 1187.11 529.3C1187.11 532.1 1187.28 534.45 1187.61 536.35C1187.95 538.25 1188.65 539.783 1189.71 540.95C1190.81 542.117 1192.41 542.7 1194.51 542.7C1196.61 542.7 1198.2 542.117 1199.26 540.95C1200.36 539.783 1201.08 538.25 1201.41 536.35C1201.75 534.45 1201.91 532.1 1201.91 529.3ZM1212.64 520.35C1212.64 517.917 1213.34 516.017 1214.74 514.65C1216.18 513.25 1218.01 512.55 1220.24 512.55C1222.48 512.55 1224.29 513.25 1225.69 514.65C1227.13 516.017 1227.84 517.917 1227.84 520.35C1227.84 522.783 1227.13 524.7 1225.69 526.1C1224.29 527.5 1222.48 528.2 1220.24 528.2C1218.01 528.2 1216.18 527.5 1214.74 526.1C1213.34 524.7 1212.64 522.783 1212.64 520.35ZM1243.14 513.2L1223.19 548H1217.59L1237.54 513.2H1243.14ZM1220.24 516C1218.14 516 1217.09 517.45 1217.09 520.35C1217.09 523.283 1218.14 524.75 1220.24 524.75C1221.24 524.75 1222.01 524.4 1222.54 523.7C1223.11 522.967 1223.39 521.85 1223.39 520.35C1223.39 517.45 1222.34 516 1220.24 516ZM1232.99 540.8C1232.99 538.367 1233.69 536.467 1235.09 535.1C1236.53 533.7 1238.36 533 1240.59 533C1242.79 533 1244.59 533.7 1245.99 535.1C1247.43 536.467 1248.14 538.367 1248.14 540.8C1248.14 543.233 1247.43 545.15 1245.99 546.55C1244.59 547.95 1242.79 548.65 1240.59 548.65C1238.36 548.65 1236.53 547.95 1235.09 546.55C1233.69 545.15 1232.99 543.233 1232.99 540.8ZM1240.54 536.45C1238.44 536.45 1237.39 537.9 1237.39 540.8C1237.39 543.7 1238.44 545.15 1240.54 545.15C1242.64 545.15 1243.69 543.7 1243.69 540.8C1243.69 537.9 1242.64 536.45 1240.54 536.45Z" fill="black"/>
<path d="M1334.23 150C1334.23 232.418 1267.42 299.231 1185 299.231C1102.58 299.231 1035.77 232.418 1035.77 150C1035.77 67.5819 1102.58 0.769043 1185 0.769043C1267.42 0.769043 1334.23 67.5819 1334.23 150Z" fill="url(#paint1_linear_1019_2550)"/>
<path d="M1132.03 204V186.5H1133.88V204H1132.03ZM1145.9 190.75C1149.1 190.75 1151.3 192.6 1151.3 196.375V204H1149.52V196.55C1149.52 193.775 1148.07 192.35 1145.57 192.35C1142.75 192.35 1140.97 194.1 1140.97 197.1V204H1139.2V190.85H1140.9V193.275C1141.85 191.675 1143.62 190.75 1145.9 190.75ZM1161.61 204.125C1157.69 204.125 1154.84 201.35 1154.84 197.425C1154.84 193.5 1157.69 190.75 1161.61 190.75C1163.84 190.75 1165.71 191.625 1166.76 193.35L1165.44 194.25C1164.54 192.925 1163.14 192.3 1161.61 192.3C1158.74 192.3 1156.64 194.35 1156.64 197.425C1156.64 200.525 1158.74 202.55 1161.61 202.55C1163.14 202.55 1164.54 201.95 1165.44 200.625L1166.76 201.525C1165.71 203.225 1163.84 204.125 1161.61 204.125ZM1171.95 193.425C1172.78 191.675 1174.45 190.75 1176.88 190.75V192.475C1176.73 192.475 1176.58 192.45 1176.45 192.45C1173.7 192.45 1172.03 194.2 1172.03 197.3V204H1170.25V190.85H1171.95V193.425ZM1191.44 197.425C1191.44 197.575 1191.42 197.775 1191.42 197.975H1180.42C1180.62 200.725 1182.72 202.55 1185.59 202.55C1187.19 202.55 1188.62 201.975 1189.62 200.825L1190.62 201.975C1189.44 203.375 1187.62 204.125 1185.54 204.125C1181.44 204.125 1178.64 201.325 1178.64 197.425C1178.64 193.525 1181.37 190.75 1185.07 190.75C1188.77 190.75 1191.44 193.475 1191.44 197.425ZM1185.07 192.275C1182.52 192.275 1180.64 194.075 1180.42 196.65H1189.74C1189.52 194.075 1187.64 192.275 1185.07 192.275ZM1199.29 190.75C1202.69 190.75 1204.61 192.45 1204.61 195.85V204H1202.91V201.95C1202.11 203.3 1200.56 204.125 1198.39 204.125C1195.41 204.125 1193.59 202.575 1193.59 200.3C1193.59 198.275 1194.89 196.575 1198.66 196.575H1202.84V195.775C1202.84 193.525 1201.56 192.3 1199.11 192.3C1197.41 192.3 1195.81 192.9 1194.74 193.85L1193.94 192.525C1195.26 191.4 1197.21 190.75 1199.29 190.75ZM1198.66 202.725C1200.66 202.725 1202.14 201.775 1202.84 200.05V197.9H1198.71C1196.16 197.9 1195.34 198.9 1195.34 200.25C1195.34 201.775 1196.56 202.725 1198.66 202.725ZM1212.96 204.125C1210.79 204.125 1208.69 203.425 1207.61 202.5L1208.41 201.1C1209.46 201.925 1211.24 202.575 1213.09 202.575C1215.59 202.575 1216.61 201.725 1216.61 200.425C1216.61 197 1208.09 199.7 1208.09 194.5C1208.09 192.35 1209.94 190.75 1213.29 190.75C1214.99 190.75 1216.84 191.225 1217.94 191.975L1217.16 193.4C1216.01 192.6 1214.64 192.275 1213.29 192.275C1210.91 192.275 1209.86 193.2 1209.86 194.45C1209.86 198 1218.39 195.325 1218.39 200.375C1218.39 202.65 1216.39 204.125 1212.96 204.125ZM1233.14 197.425C1233.14 197.575 1233.12 197.775 1233.12 197.975H1222.12C1222.32 200.725 1224.42 202.55 1227.29 202.55C1228.89 202.55 1230.32 201.975 1231.32 200.825L1232.32 201.975C1231.14 203.375 1229.32 204.125 1227.24 204.125C1223.14 204.125 1220.34 201.325 1220.34 197.425C1220.34 193.525 1223.07 190.75 1226.77 190.75C1230.47 190.75 1233.14 193.475 1233.14 197.425ZM1226.77 192.275C1224.22 192.275 1222.34 194.075 1222.12 196.65H1231.44C1231.22 194.075 1229.34 192.275 1226.77 192.275ZM1086.27 234H1084.25L1080.25 228.375C1079.8 228.425 1079.35 228.45 1078.85 228.45H1074.15V234H1072.3V216.5H1078.85C1083.3 216.5 1086 218.75 1086 222.5C1086 225.25 1084.55 227.175 1082 228L1086.27 234ZM1078.8 226.875C1082.3 226.875 1084.15 225.25 1084.15 222.5C1084.15 219.7 1082.3 218.1 1078.8 218.1H1074.15V226.875H1078.8ZM1101.46 227.425C1101.46 227.575 1101.44 227.775 1101.44 227.975H1090.44C1090.64 230.725 1092.74 232.55 1095.61 232.55C1097.21 232.55 1098.64 231.975 1099.64 230.825L1100.64 231.975C1099.46 233.375 1097.64 234.125 1095.56 234.125C1091.46 234.125 1088.66 231.325 1088.66 227.425C1088.66 223.525 1091.39 220.75 1095.09 220.75C1098.79 220.75 1101.46 223.475 1101.46 227.425ZM1095.09 222.275C1092.54 222.275 1090.66 224.075 1090.44 226.65H1099.76C1099.54 224.075 1097.66 222.275 1095.09 222.275ZM1114.13 220.85H1115.88L1110.03 234H1108.21L1102.38 220.85H1104.23L1109.16 232.05L1114.13 220.85ZM1129.49 227.425C1129.49 227.575 1129.47 227.775 1129.47 227.975H1118.47C1118.67 230.725 1120.77 232.55 1123.64 232.55C1125.24 232.55 1126.67 231.975 1127.67 230.825L1128.67 231.975C1127.49 233.375 1125.67 234.125 1123.59 234.125C1119.49 234.125 1116.69 231.325 1116.69 227.425C1116.69 223.525 1119.42 220.75 1123.12 220.75C1126.82 220.75 1129.49 223.475 1129.49 227.425ZM1123.12 222.275C1120.57 222.275 1118.69 224.075 1118.47 226.65H1127.79C1127.57 224.075 1125.69 222.275 1123.12 222.275ZM1139.8 220.75C1143 220.75 1145.2 222.6 1145.2 226.375V234H1143.43V226.55C1143.43 223.775 1141.98 222.35 1139.48 222.35C1136.65 222.35 1134.88 224.1 1134.88 227.1V234H1133.1V220.85H1134.8V223.275C1135.75 221.675 1137.53 220.75 1139.8 220.75ZM1160.1 220.85H1161.87V234H1160.17V231.6C1159.25 233.2 1157.55 234.125 1155.45 234.125C1152.1 234.125 1149.9 232.25 1149.9 228.475V220.85H1151.67V228.3C1151.67 231.1 1153.12 232.525 1155.62 232.525C1158.37 232.525 1160.1 230.75 1160.1 227.75V220.85ZM1178.32 227.425C1178.32 227.575 1178.3 227.775 1178.3 227.975H1167.3C1167.5 230.725 1169.6 232.55 1172.47 232.55C1174.07 232.55 1175.5 231.975 1176.5 230.825L1177.5 231.975C1176.32 233.375 1174.5 234.125 1172.42 234.125C1168.32 234.125 1165.52 231.325 1165.52 227.425C1165.52 223.525 1168.25 220.75 1171.95 220.75C1175.65 220.75 1178.32 223.475 1178.32 227.425ZM1171.95 222.275C1169.4 222.275 1167.52 224.075 1167.3 226.65H1176.62C1176.4 224.075 1174.52 222.275 1171.95 222.275ZM1202.83 234H1200.8L1196.8 228.375C1196.35 228.425 1195.9 228.45 1195.4 228.45H1190.7V234H1188.85V216.5H1195.4C1199.85 216.5 1202.55 218.75 1202.55 222.5C1202.55 225.25 1201.1 227.175 1198.55 228L1202.83 234ZM1195.35 226.875C1198.85 226.875 1200.7 225.25 1200.7 222.5C1200.7 219.7 1198.85 218.1 1195.35 218.1H1190.7V226.875H1195.35ZM1218.02 227.425C1218.02 227.575 1217.99 227.775 1217.99 227.975H1206.99C1207.19 230.725 1209.29 232.55 1212.17 232.55C1213.77 232.55 1215.19 231.975 1216.19 230.825L1217.19 231.975C1216.02 233.375 1214.19 234.125 1212.12 234.125C1208.02 234.125 1205.22 231.325 1205.22 227.425C1205.22 223.525 1207.94 220.75 1211.64 220.75C1215.34 220.75 1218.02 223.475 1218.02 227.425ZM1211.64 222.275C1209.09 222.275 1207.22 224.075 1206.99 226.65H1216.32C1216.09 224.075 1214.22 222.275 1211.64 222.275ZM1227.08 234.125C1223.16 234.125 1220.31 231.35 1220.31 227.425C1220.31 223.5 1223.16 220.75 1227.08 220.75C1229.31 220.75 1231.18 221.625 1232.23 223.35L1230.91 224.25C1230.01 222.925 1228.61 222.3 1227.08 222.3C1224.21 222.3 1222.11 224.35 1222.11 227.425C1222.11 230.525 1224.21 232.55 1227.08 232.55C1228.61 232.55 1230.01 231.95 1230.91 230.625L1232.23 231.525C1231.18 233.225 1229.31 234.125 1227.08 234.125ZM1240.87 234.125C1237.02 234.125 1234.17 231.325 1234.17 227.425C1234.17 223.525 1237.02 220.75 1240.87 220.75C1244.72 220.75 1247.55 223.525 1247.55 227.425C1247.55 231.325 1244.72 234.125 1240.87 234.125ZM1240.87 232.55C1243.67 232.55 1245.75 230.5 1245.75 227.425C1245.75 224.35 1243.67 222.3 1240.87 222.3C1238.07 222.3 1235.97 224.35 1235.97 227.425C1235.97 230.5 1238.07 232.55 1240.87 232.55ZM1260.11 220.85H1261.86L1256.01 234H1254.18L1248.36 220.85H1250.21L1255.13 232.05L1260.11 220.85ZM1275.46 227.425C1275.46 227.575 1275.44 227.775 1275.44 227.975H1264.44C1264.64 230.725 1266.74 232.55 1269.61 232.55C1271.21 232.55 1272.64 231.975 1273.64 230.825L1274.64 231.975C1273.46 233.375 1271.64 234.125 1269.56 234.125C1265.46 234.125 1262.66 231.325 1262.66 227.425C1262.66 223.525 1265.39 220.75 1269.09 220.75C1272.79 220.75 1275.46 223.475 1275.46 227.425ZM1269.09 222.275C1266.54 222.275 1264.66 224.075 1264.44 226.65H1273.76C1273.54 224.075 1271.66 222.275 1269.09 222.275ZM1280.78 223.425C1281.6 221.675 1283.28 220.75 1285.7 220.75V222.475C1285.55 222.475 1285.4 222.45 1285.28 222.45C1282.53 222.45 1280.85 224.2 1280.85 227.3V234H1279.08V220.85H1280.78V223.425ZM1298.78 220.85H1300.53L1293.95 235.575C1292.85 238.15 1291.45 238.975 1289.58 238.975C1288.35 238.975 1287.18 238.575 1286.38 237.775L1287.2 236.45C1287.85 237.1 1288.65 237.45 1289.6 237.45C1290.78 237.45 1291.58 236.9 1292.33 235.25L1292.9 233.975L1287.03 220.85H1288.88L1293.83 232.025L1298.78 220.85Z" fill="black"/>
<path d="M1153.6 140C1153.23 138.467 1152.57 137.317 1151.6 136.55C1150.63 135.783 1149.28 135.4 1147.55 135.4C1144.92 135.4 1142.95 136.417 1141.65 138.45C1140.35 140.45 1139.67 143.783 1139.6 148.45C1140.47 146.983 1141.73 145.85 1143.4 145.05C1145.07 144.25 1146.87 143.85 1148.8 143.85C1151 143.85 1152.93 144.333 1154.6 145.3C1156.3 146.233 1157.62 147.6 1158.55 149.4C1159.52 151.2 1160 153.35 1160 155.85C1160 158.183 1159.53 160.267 1158.6 162.1C1157.7 163.933 1156.35 165.383 1154.55 166.45C1152.75 167.483 1150.58 168 1148.05 168C1144.62 168 1141.92 167.25 1139.95 165.75C1138.02 164.217 1136.65 162.067 1135.85 159.3C1135.08 156.533 1134.7 153.083 1134.7 148.95C1134.7 136.75 1139 130.65 1147.6 130.65C1150.93 130.65 1153.55 131.55 1155.45 133.35C1157.38 135.15 1158.52 137.367 1158.85 140H1153.6ZM1147.55 148.65C1145.52 148.65 1143.78 149.267 1142.35 150.5C1140.95 151.7 1140.25 153.45 1140.25 155.75C1140.25 158.05 1140.9 159.883 1142.2 161.25C1143.53 162.583 1145.38 163.25 1147.75 163.25C1149.85 163.25 1151.5 162.6 1152.7 161.3C1153.93 160 1154.55 158.267 1154.55 156.1C1154.55 153.833 1153.95 152.033 1152.75 150.7C1151.58 149.333 1149.85 148.65 1147.55 148.65ZM1165.18 140.35C1165.18 137.917 1165.88 136.017 1167.28 134.65C1168.71 133.25 1170.55 132.55 1172.78 132.55C1175.01 132.55 1176.83 133.25 1178.23 134.65C1179.66 136.017 1180.38 137.917 1180.38 140.35C1180.38 142.783 1179.66 144.7 1178.23 146.1C1176.83 147.5 1175.01 148.2 1172.78 148.2C1170.55 148.2 1168.71 147.5 1167.28 146.1C1165.88 144.7 1165.18 142.783 1165.18 140.35ZM1195.68 133.2L1175.73 168H1170.13L1190.08 133.2H1195.68ZM1172.78 136C1170.68 136 1169.63 137.45 1169.63 140.35C1169.63 143.283 1170.68 144.75 1172.78 144.75C1173.78 144.75 1174.55 144.4 1175.08 143.7C1175.65 142.967 1175.93 141.85 1175.93 140.35C1175.93 137.45 1174.88 136 1172.78 136ZM1185.53 160.8C1185.53 158.367 1186.23 156.467 1187.63 155.1C1189.06 153.7 1190.9 153 1193.13 153C1195.33 153 1197.13 153.7 1198.53 155.1C1199.96 156.467 1200.68 158.367 1200.68 160.8C1200.68 163.233 1199.96 165.15 1198.53 166.55C1197.13 167.95 1195.33 168.65 1193.13 168.65C1190.9 168.65 1189.06 167.95 1187.63 166.55C1186.23 165.15 1185.53 163.233 1185.53 160.8ZM1193.08 156.45C1190.98 156.45 1189.93 157.9 1189.93 160.8C1189.93 163.7 1190.98 165.15 1193.08 165.15C1195.18 165.15 1196.23 163.7 1196.23 160.8C1196.23 157.9 1195.18 156.45 1193.08 156.45ZM1233.38 152.35H1223.28V162.7H1217.98V152.35H1207.88V147.55H1217.98V137.2H1223.28V147.55H1233.38V152.35Z" fill="black"/>
<path d="M989.231 152C989.231 234.418 922.418 301.231 840 301.231C757.582 301.231 690.77 234.418 690.77 152C690.77 69.5819 757.582 2.76904 840 2.76904C922.418 2.76904 989.231 69.5819 989.231 152Z" fill="url(#paint2_linear_1019_2550)"/>
<path d="M767.288 216V198.5H769.138V216H767.288ZM790.857 202.75C794.057 202.75 796.157 204.6 796.157 208.375V216H794.382V208.55C794.382 205.775 792.982 204.35 790.607 204.35C787.907 204.35 786.207 206.1 786.207 209.1V216H784.432V208.55C784.432 205.775 783.032 204.35 780.632 204.35C777.957 204.35 776.232 206.1 776.232 209.1V216H774.457V202.85H776.157V205.25C777.082 203.675 778.782 202.75 780.982 202.75C783.157 202.75 784.857 203.675 785.657 205.525C786.607 203.825 788.482 202.75 790.857 202.75ZM807.746 202.75C811.496 202.75 814.296 205.45 814.296 209.425C814.296 213.425 811.496 216.125 807.746 216.125C805.646 216.125 803.846 215.225 802.746 213.525V220.85H800.971V202.85H802.671V205.45C803.746 203.7 805.571 202.75 807.746 202.75ZM807.621 214.55C810.396 214.55 812.521 212.5 812.521 209.425C812.521 206.375 810.396 204.3 807.621 204.3C804.821 204.3 802.721 206.375 802.721 209.425C802.721 212.5 804.821 214.55 807.621 214.55ZM819.614 205.425C820.439 203.675 822.114 202.75 824.539 202.75V204.475C824.389 204.475 824.239 204.45 824.114 204.45C821.364 204.45 819.689 206.2 819.689 209.3V216H817.914V202.85H819.614V205.425ZM833.006 216.125C829.156 216.125 826.306 213.325 826.306 209.425C826.306 205.525 829.156 202.75 833.006 202.75C836.856 202.75 839.681 205.525 839.681 209.425C839.681 213.325 836.856 216.125 833.006 216.125ZM833.006 214.55C835.806 214.55 837.881 212.5 837.881 209.425C837.881 206.35 835.806 204.3 833.006 204.3C830.206 204.3 828.106 206.35 828.106 209.425C828.106 212.5 830.206 214.55 833.006 214.55ZM852.238 202.85H853.988L848.138 216H846.313L840.488 202.85H842.338L847.263 214.05L852.238 202.85ZM867.597 209.425C867.597 209.575 867.572 209.775 867.572 209.975H856.572C856.772 212.725 858.872 214.55 861.747 214.55C863.347 214.55 864.772 213.975 865.772 212.825L866.772 213.975C865.597 215.375 863.772 216.125 861.697 216.125C857.597 216.125 854.797 213.325 854.797 209.425C854.797 205.525 857.522 202.75 861.222 202.75C864.922 202.75 867.597 205.475 867.597 209.425ZM861.222 204.275C858.672 204.275 856.797 206.075 856.572 208.65H865.897C865.672 206.075 863.797 204.275 861.222 204.275ZM891.203 216L889.103 211.325H879.353L877.253 216H875.328L883.328 198.5H885.153L893.153 216H891.203ZM880.028 209.825H888.428L884.228 200.425L880.028 209.825ZM905.776 197.45H907.551V216H905.851V213.4C904.776 215.175 902.951 216.125 900.776 216.125C897.026 216.125 894.226 213.4 894.226 209.425C894.226 205.45 897.026 202.75 900.776 202.75C902.876 202.75 904.676 203.65 905.776 205.35V197.45ZM900.926 214.55C903.701 214.55 905.801 212.5 905.801 209.425C905.801 206.35 903.701 204.3 900.926 204.3C898.126 204.3 896.026 206.35 896.026 209.425C896.026 212.5 898.126 214.55 900.926 214.55ZM774.328 246.125C770.403 246.125 767.553 243.35 767.553 239.425C767.553 235.5 770.403 232.75 774.328 232.75C776.553 232.75 778.428 233.625 779.478 235.35L778.153 236.25C777.253 234.925 775.853 234.3 774.328 234.3C771.453 234.3 769.353 236.35 769.353 239.425C769.353 242.525 771.453 244.55 774.328 244.55C775.853 244.55 777.253 243.95 778.153 242.625L779.478 243.525C778.428 245.225 776.553 246.125 774.328 246.125ZM788.121 246.125C784.271 246.125 781.421 243.325 781.421 239.425C781.421 235.525 784.271 232.75 788.121 232.75C791.971 232.75 794.796 235.525 794.796 239.425C794.796 243.325 791.971 246.125 788.121 246.125ZM788.121 244.55C790.921 244.55 792.996 242.5 792.996 239.425C792.996 236.35 790.921 234.3 788.121 234.3C785.321 234.3 783.221 236.35 783.221 239.425C783.221 242.5 785.321 244.55 788.121 244.55ZM805.119 232.75C808.319 232.75 810.519 234.6 810.519 238.375V246H808.744V238.55C808.744 235.775 807.294 234.35 804.794 234.35C801.969 234.35 800.194 236.1 800.194 239.1V246H798.419V232.85H800.119V235.275C801.069 233.675 802.844 232.75 805.119 232.75ZM824.394 232.85H826.144L820.294 246H818.469L812.644 232.85H814.494L819.419 244.05L824.394 232.85ZM839.753 239.425C839.753 239.575 839.728 239.775 839.728 239.975H828.728C828.928 242.725 831.028 244.55 833.903 244.55C835.503 244.55 836.928 243.975 837.928 242.825L838.928 243.975C837.753 245.375 835.928 246.125 833.853 246.125C829.753 246.125 826.953 243.325 826.953 239.425C826.953 235.525 829.678 232.75 833.378 232.75C837.078 232.75 839.753 235.475 839.753 239.425ZM833.378 234.275C830.828 234.275 828.953 236.075 828.728 238.65H838.053C837.828 236.075 835.953 234.275 833.378 234.275ZM845.066 235.425C845.891 233.675 847.566 232.75 849.991 232.75V234.475C849.841 234.475 849.691 234.45 849.566 234.45C846.816 234.45 845.141 236.2 845.141 239.3V246H843.366V232.85H845.066V235.425ZM856.827 246.125C854.652 246.125 852.552 245.425 851.477 244.5L852.277 243.1C853.327 243.925 855.102 244.575 856.952 244.575C859.452 244.575 860.477 243.725 860.477 242.425C860.477 239 851.952 241.7 851.952 236.5C851.952 234.35 853.802 232.75 857.152 232.75C858.852 232.75 860.702 233.225 861.802 233.975L861.027 235.4C859.877 234.6 858.502 234.275 857.152 234.275C854.777 234.275 853.727 235.2 853.727 236.45C853.727 240 862.252 237.325 862.252 242.375C862.252 244.65 860.252 246.125 856.827 246.125ZM866.434 229.975C865.709 229.975 865.134 229.4 865.134 228.7C865.134 228.025 865.709 227.45 866.434 227.45C867.159 227.45 867.734 228 867.734 228.675C867.734 229.4 867.184 229.975 866.434 229.975ZM865.534 246V232.85H867.309V246H865.534ZM877.622 246.125C873.772 246.125 870.922 243.325 870.922 239.425C870.922 235.525 873.772 232.75 877.622 232.75C881.472 232.75 884.297 235.525 884.297 239.425C884.297 243.325 881.472 246.125 877.622 246.125ZM877.622 244.55C880.422 244.55 882.497 242.5 882.497 239.425C882.497 236.35 880.422 234.3 877.622 234.3C874.822 234.3 872.722 236.35 872.722 239.425C872.722 242.5 874.822 244.55 877.622 244.55ZM894.621 232.75C897.821 232.75 900.021 234.6 900.021 238.375V246H898.246V238.55C898.246 235.775 896.796 234.35 894.296 234.35C891.471 234.35 889.696 236.1 889.696 239.1V246H887.921V232.85H889.621V235.275C890.571 233.675 892.346 232.75 894.621 232.75ZM908.365 246.125C906.19 246.125 904.09 245.425 903.015 244.5L903.815 243.1C904.865 243.925 906.64 244.575 908.49 244.575C910.99 244.575 912.015 243.725 912.015 242.425C912.015 239 903.49 241.7 903.49 236.5C903.49 234.35 905.34 232.75 908.69 232.75C910.39 232.75 912.24 233.225 913.34 233.975L912.565 235.4C911.415 234.6 910.04 234.275 908.69 234.275C906.315 234.275 905.265 235.2 905.265 236.45C905.265 240 913.79 237.325 913.79 242.375C913.79 244.65 911.79 246.125 908.365 246.125Z" fill="black"/>
<path d="M796.15 162.25C799.35 159.483 801.867 157.217 803.7 155.45C805.567 153.65 807.117 151.783 808.35 149.85C809.583 147.917 810.2 145.983 810.2 144.05C810.2 142.05 809.717 140.483 808.75 139.35C807.817 138.217 806.333 137.65 804.3 137.65C802.333 137.65 800.8 138.283 799.7 139.55C798.633 140.783 798.067 142.45 798 144.55H792.5C792.6 140.75 793.733 137.85 795.9 135.85C798.1 133.817 800.883 132.8 804.25 132.8C807.883 132.8 810.717 133.8 812.75 135.8C814.817 137.8 815.85 140.467 815.85 143.8C815.85 146.2 815.233 148.517 814 150.75C812.8 152.95 811.35 154.933 809.65 156.7C807.983 158.433 805.85 160.45 803.25 162.75L801 164.75H816.85V169.5H792.55V165.35L796.15 162.25ZM821.857 151.3C821.857 145.533 822.824 141.033 824.757 137.8C826.724 134.533 830.091 132.9 834.857 132.9C839.624 132.9 842.974 134.533 844.907 137.8C846.874 141.033 847.857 145.533 847.857 151.3C847.857 157.133 846.874 161.7 844.907 165C842.974 168.267 839.624 169.9 834.857 169.9C830.091 169.9 826.724 168.267 824.757 165C822.824 161.7 821.857 157.133 821.857 151.3ZM842.257 151.3C842.257 148.6 842.074 146.317 841.707 144.45C841.374 142.583 840.674 141.067 839.607 139.9C838.541 138.7 836.957 138.1 834.857 138.1C832.757 138.1 831.174 138.7 830.107 139.9C829.041 141.067 828.324 142.583 827.957 144.45C827.624 146.317 827.457 148.6 827.457 151.3C827.457 154.1 827.624 156.45 827.957 158.35C828.291 160.25 828.991 161.783 830.057 162.95C831.157 164.117 832.757 164.7 834.857 164.7C836.957 164.7 838.541 164.117 839.607 162.95C840.707 161.783 841.424 160.25 841.757 158.35C842.091 156.45 842.257 154.1 842.257 151.3ZM852.989 142.35C852.989 139.917 853.689 138.017 855.089 136.65C856.522 135.25 858.355 134.55 860.589 134.55C862.822 134.55 864.639 135.25 866.039 136.65C867.472 138.017 868.189 139.917 868.189 142.35C868.189 144.783 867.472 146.7 866.039 148.1C864.639 149.5 862.822 150.2 860.589 150.2C858.355 150.2 856.522 149.5 855.089 148.1C853.689 146.7 852.989 144.783 852.989 142.35ZM883.489 135.2L863.539 170H857.939L877.889 135.2H883.489ZM860.589 138C858.489 138 857.439 139.45 857.439 142.35C857.439 145.283 858.489 146.75 860.589 146.75C861.589 146.75 862.355 146.4 862.889 145.7C863.455 144.967 863.739 143.85 863.739 142.35C863.739 139.45 862.689 138 860.589 138ZM873.339 162.8C873.339 160.367 874.039 158.467 875.439 157.1C876.872 155.7 878.705 155 880.939 155C883.139 155 884.939 155.7 886.339 157.1C887.772 158.467 888.489 160.367 888.489 162.8C888.489 165.233 887.772 167.15 886.339 168.55C884.939 169.95 883.139 170.65 880.939 170.65C878.705 170.65 876.872 169.95 875.439 168.55C874.039 167.15 873.339 165.233 873.339 162.8ZM880.889 158.45C878.789 158.45 877.739 159.9 877.739 162.8C877.739 165.7 878.789 167.15 880.889 167.15C882.989 167.15 884.039 165.7 884.039 162.8C884.039 159.9 882.989 158.45 880.889 158.45Z" fill="black"/>
<path d="M644.231 150C644.231 232.418 577.418 299.231 495 299.231C412.582 299.231 345.77 232.418 345.77 150C345.77 67.5819 412.582 0.769043 495 0.769043C577.418 0.769043 644.231 67.5819 644.231 150Z" fill="url(#paint3_linear_1019_2550)"/>
<path d="M409.96 214V196.5H411.81V214H409.96ZM423.829 200.75C427.029 200.75 429.229 202.6 429.229 206.375V214H427.454V206.55C427.454 203.775 426.004 202.35 423.504 202.35C420.679 202.35 418.904 204.1 418.904 207.1V214H417.129V200.85H418.829V203.275C419.779 201.675 421.554 200.75 423.829 200.75ZM439.547 214.125C435.622 214.125 432.772 211.35 432.772 207.425C432.772 203.5 435.622 200.75 439.547 200.75C441.772 200.75 443.647 201.625 444.697 203.35L443.372 204.25C442.472 202.925 441.072 202.3 439.547 202.3C436.672 202.3 434.572 204.35 434.572 207.425C434.572 210.525 436.672 212.55 439.547 212.55C441.072 212.55 442.472 211.95 443.372 210.625L444.697 211.525C443.647 213.225 441.772 214.125 439.547 214.125ZM449.883 203.425C450.708 201.675 452.383 200.75 454.808 200.75V202.475C454.658 202.475 454.508 202.45 454.383 202.45C451.633 202.45 449.958 204.2 449.958 207.3V214H448.183V200.85H449.883V203.425ZM469.375 207.425C469.375 207.575 469.35 207.775 469.35 207.975H458.35C458.55 210.725 460.65 212.55 463.525 212.55C465.125 212.55 466.55 211.975 467.55 210.825L468.55 211.975C467.375 213.375 465.55 214.125 463.475 214.125C459.375 214.125 456.575 211.325 456.575 207.425C456.575 203.525 459.3 200.75 463 200.75C466.7 200.75 469.375 203.475 469.375 207.425ZM463 202.275C460.45 202.275 458.575 204.075 458.35 206.65H467.675C467.45 204.075 465.575 202.275 463 202.275ZM477.222 200.75C480.622 200.75 482.547 202.45 482.547 205.85V214H480.847V211.95C480.047 213.3 478.497 214.125 476.322 214.125C473.347 214.125 471.522 212.575 471.522 210.3C471.522 208.275 472.822 206.575 476.597 206.575H480.772V205.775C480.772 203.525 479.497 202.3 477.047 202.3C475.347 202.3 473.747 202.9 472.672 203.85L471.872 202.525C473.197 201.4 475.147 200.75 477.222 200.75ZM476.597 212.725C478.597 212.725 480.072 211.775 480.772 210.05V207.9H476.647C474.097 207.9 473.272 208.9 473.272 210.25C473.272 211.775 474.497 212.725 476.597 212.725ZM490.893 214.125C488.718 214.125 486.618 213.425 485.543 212.5L486.343 211.1C487.393 211.925 489.168 212.575 491.018 212.575C493.518 212.575 494.543 211.725 494.543 210.425C494.543 207 486.018 209.7 486.018 204.5C486.018 202.35 487.868 200.75 491.218 200.75C492.918 200.75 494.768 201.225 495.868 201.975L495.093 203.4C493.943 202.6 492.568 202.275 491.218 202.275C488.843 202.275 487.793 203.2 487.793 204.45C487.793 208 496.318 205.325 496.318 210.375C496.318 212.65 494.318 214.125 490.893 214.125ZM511.075 207.425C511.075 207.575 511.05 207.775 511.05 207.975H500.05C500.25 210.725 502.35 212.55 505.225 212.55C506.825 212.55 508.25 211.975 509.25 210.825L510.25 211.975C509.075 213.375 507.25 214.125 505.175 214.125C501.075 214.125 498.275 211.325 498.275 207.425C498.275 203.525 501 200.75 504.7 200.75C508.4 200.75 511.075 203.475 511.075 207.425ZM504.7 202.275C502.15 202.275 500.275 204.075 500.05 206.65H509.375C509.15 204.075 507.275 202.275 504.7 202.275ZM531.455 195.45H533.23V214H531.53V211.4C530.455 213.175 528.63 214.125 526.455 214.125C522.705 214.125 519.905 211.4 519.905 207.425C519.905 203.45 522.705 200.75 526.455 200.75C528.555 200.75 530.355 201.65 531.455 203.35V195.45ZM526.605 212.55C529.38 212.55 531.48 210.5 531.48 207.425C531.48 204.35 529.38 202.3 526.605 202.3C523.805 202.3 521.705 204.35 521.705 207.425C521.705 210.5 523.805 212.55 526.605 212.55ZM542.774 200.75C546.174 200.75 548.099 202.45 548.099 205.85V214H546.399V211.95C545.599 213.3 544.049 214.125 541.874 214.125C538.899 214.125 537.074 212.575 537.074 210.3C537.074 208.275 538.374 206.575 542.149 206.575H546.324V205.775C546.324 203.525 545.049 202.3 542.599 202.3C540.899 202.3 539.299 202.9 538.224 203.85L537.424 202.525C538.749 201.4 540.699 200.75 542.774 200.75ZM542.149 212.725C544.149 212.725 545.624 211.775 546.324 210.05V207.9H542.199C539.649 207.9 538.824 208.9 538.824 210.25C538.824 211.775 540.049 212.725 542.149 212.725ZM559.22 211.925L559.845 213.2C559.145 213.825 558.095 214.125 557.07 214.125C554.595 214.125 553.22 212.725 553.22 210.3V202.35H550.87V200.85H553.22V197.975H554.995V200.85H558.995V202.35H554.995V210.2C554.995 211.75 555.795 212.6 557.27 212.6C557.995 212.6 558.72 212.375 559.22 211.925ZM567.676 200.75C571.076 200.75 573.001 202.45 573.001 205.85V214H571.301V211.95C570.501 213.3 568.951 214.125 566.776 214.125C563.801 214.125 561.976 212.575 561.976 210.3C561.976 208.275 563.276 206.575 567.051 206.575H571.226V205.775C571.226 203.525 569.951 202.3 567.501 202.3C565.801 202.3 564.201 202.9 563.126 203.85L562.326 202.525C563.651 201.4 565.601 200.75 567.676 200.75ZM567.051 212.725C569.051 212.725 570.526 211.775 571.226 210.05V207.9H567.101C564.551 207.9 563.726 208.9 563.726 210.25C563.726 211.775 564.951 212.725 567.051 212.725ZM464.575 230.85H466.275V248.85H464.5V241.525C463.4 243.225 461.6 244.125 459.5 244.125C455.75 244.125 452.95 241.425 452.95 237.425C452.95 233.45 455.75 230.75 459.5 230.75C461.675 230.75 463.5 231.7 464.575 233.45V230.85ZM459.65 242.55C462.425 242.55 464.525 240.5 464.525 237.425C464.525 234.375 462.425 232.3 459.65 232.3C456.85 232.3 454.75 234.375 454.75 237.425C454.75 240.5 456.85 242.55 459.65 242.55ZM481.293 230.85H483.068V244H481.368V241.6C480.443 243.2 478.743 244.125 476.643 244.125C473.293 244.125 471.093 242.25 471.093 238.475V230.85H472.868V238.3C472.868 241.1 474.318 242.525 476.818 242.525C479.568 242.525 481.293 240.75 481.293 237.75V230.85ZM492.639 230.75C496.039 230.75 497.964 232.45 497.964 235.85V244H496.264V241.95C495.464 243.3 493.914 244.125 491.739 244.125C488.764 244.125 486.939 242.575 486.939 240.3C486.939 238.275 488.239 236.575 492.014 236.575H496.189V235.775C496.189 233.525 494.914 232.3 492.464 232.3C490.764 232.3 489.164 232.9 488.089 233.85L487.289 232.525C488.614 231.4 490.564 230.75 492.639 230.75ZM492.014 242.725C494.014 242.725 495.489 241.775 496.189 240.05V237.9H492.064C489.514 237.9 488.689 238.9 488.689 240.25C488.689 241.775 489.914 242.725 492.014 242.725ZM502.786 244V225.45H504.561V244H502.786ZM510.399 227.975C509.674 227.975 509.099 227.4 509.099 226.7C509.099 226.025 509.674 225.45 510.399 225.45C511.124 225.45 511.699 226 511.699 226.675C511.699 227.4 511.149 227.975 510.399 227.975ZM509.499 244V230.85H511.274V244H509.499ZM522.513 241.925L523.138 243.2C522.438 243.825 521.388 244.125 520.363 244.125C517.888 244.125 516.513 242.725 516.513 240.3V232.35H514.163V230.85H516.513V227.975H518.288V230.85H522.288V232.35H518.288V240.2C518.288 241.75 519.088 242.6 520.563 242.6C521.288 242.6 522.013 242.375 522.513 241.925ZM535.425 230.85H537.175L530.6 245.575C529.5 248.15 528.1 248.975 526.225 248.975C525 248.975 523.825 248.575 523.025 247.775L523.85 246.45C524.5 247.1 525.3 247.45 526.25 247.45C527.425 247.45 528.225 246.9 528.975 245.25L529.55 243.975L523.675 230.85H525.525L530.475 242.025L535.425 230.85Z" fill="black"/>
<path d="M465.6 140C465.233 138.467 464.567 137.317 463.6 136.55C462.633 135.783 461.283 135.4 459.55 135.4C456.917 135.4 454.95 136.417 453.65 138.45C452.35 140.45 451.667 143.783 451.6 148.45C452.467 146.983 453.733 145.85 455.4 145.05C457.067 144.25 458.867 143.85 460.8 143.85C463 143.85 464.933 144.333 466.6 145.3C468.3 146.233 469.617 147.6 470.55 149.4C471.517 151.2 472 153.35 472 155.85C472 158.183 471.533 160.267 470.6 162.1C469.7 163.933 468.35 165.383 466.55 166.45C464.75 167.483 462.583 168 460.05 168C456.617 168 453.917 167.25 451.95 165.75C450.017 164.217 448.65 162.067 447.85 159.3C447.083 156.533 446.7 153.083 446.7 148.95C446.7 136.75 451 130.65 459.6 130.65C462.933 130.65 465.55 131.55 467.45 133.35C469.383 135.15 470.517 137.367 470.85 140H465.6ZM459.55 148.65C457.517 148.65 455.783 149.267 454.35 150.5C452.95 151.7 452.25 153.45 452.25 155.75C452.25 158.05 452.9 159.883 454.2 161.25C455.533 162.583 457.383 163.25 459.75 163.25C461.85 163.25 463.5 162.6 464.7 161.3C465.933 160 466.55 158.267 466.55 156.1C466.55 153.833 465.95 152.033 464.75 150.7C463.583 149.333 461.85 148.65 459.55 148.65ZM501.58 136.45H484.83V146.4C485.53 145.467 486.563 144.683 487.93 144.05C489.33 143.417 490.813 143.1 492.38 143.1C495.18 143.1 497.447 143.7 499.18 144.9C500.947 146.1 502.197 147.617 502.93 149.45C503.697 151.283 504.08 153.217 504.08 155.25C504.08 157.717 503.597 159.917 502.63 161.85C501.697 163.75 500.28 165.25 498.38 166.35C496.513 167.45 494.213 168 491.48 168C487.847 168 484.93 167.1 482.73 165.3C480.53 163.5 479.213 161.117 478.78 158.15H484.33C484.697 159.717 485.513 160.967 486.78 161.9C488.047 162.8 489.63 163.25 491.53 163.25C493.897 163.25 495.663 162.533 496.83 161.1C498.03 159.667 498.63 157.767 498.63 155.4C498.63 153 498.03 151.167 496.83 149.9C495.63 148.6 493.863 147.95 491.53 147.95C489.897 147.95 488.513 148.367 487.38 149.2C486.28 150 485.48 151.1 484.98 152.5H479.58V131.45H501.58V136.45ZM509.114 140.35C509.114 137.917 509.814 136.017 511.214 134.65C512.647 133.25 514.48 132.55 516.714 132.55C518.947 132.55 520.764 133.25 522.164 134.65C523.597 136.017 524.314 137.917 524.314 140.35C524.314 142.783 523.597 144.7 522.164 146.1C520.764 147.5 518.947 148.2 516.714 148.2C514.48 148.2 512.647 147.5 511.214 146.1C509.814 144.7 509.114 142.783 509.114 140.35ZM539.614 133.2L519.664 168H514.064L534.014 133.2H539.614ZM516.714 136C514.614 136 513.564 137.45 513.564 140.35C513.564 143.283 514.614 144.75 516.714 144.75C517.714 144.75 518.48 144.4 519.014 143.7C519.58 142.967 519.864 141.85 519.864 140.35C519.864 137.45 518.814 136 516.714 136ZM529.464 160.8C529.464 158.367 530.164 156.467 531.564 155.1C532.997 153.7 534.83 153 537.064 153C539.264 153 541.064 153.7 542.464 155.1C543.897 156.467 544.614 158.367 544.614 160.8C544.614 163.233 543.897 165.15 542.464 166.55C541.064 167.95 539.264 168.65 537.064 168.65C534.83 168.65 532.997 167.95 531.564 166.55C530.164 165.15 529.464 163.233 529.464 160.8ZM537.014 156.45C534.914 156.45 533.864 157.9 533.864 160.8C533.864 163.7 534.914 165.15 537.014 165.15C539.114 165.15 540.164 163.7 540.164 160.8C540.164 157.9 539.114 156.45 537.014 156.45Z" fill="black"/>
<path d="M299.231 150C299.231 232.418 232.418 299.231 150 299.231C67.5824 299.231 0.769531 232.418 0.769531 150C0.769531 67.5819 67.5824 0.769043 150 0.769043C232.418 0.769043 299.231 67.5819 299.231 150Z" fill="url(#paint4_linear_1019_2550)"/>
<path d="M78.0555 214H76.0305L72.0305 208.375C71.5805 208.425 71.1305 208.45 70.6305 208.45H65.9305V214H64.0805V196.5H70.6305C75.0805 196.5 77.7805 198.75 77.7805 202.5C77.7805 205.25 76.3305 207.175 73.7805 208L78.0555 214ZM70.5805 206.875C74.0805 206.875 75.9305 205.25 75.9305 202.5C75.9305 199.7 74.0805 198.1 70.5805 198.1H65.9305V206.875H70.5805ZM93.2469 207.425C93.2469 207.575 93.2219 207.775 93.2219 207.975H82.2219C82.4219 210.725 84.5219 212.55 87.3969 212.55C88.9969 212.55 90.4219 211.975 91.4219 210.825L92.4219 211.975C91.2469 213.375 89.4219 214.125 87.3469 214.125C83.2469 214.125 80.4469 211.325 80.4469 207.425C80.4469 203.525 83.1719 200.75 86.8719 200.75C90.5719 200.75 93.2469 203.475 93.2469 207.425ZM86.8719 202.275C84.3219 202.275 82.4469 204.075 82.2219 206.65H91.5469C91.3219 204.075 89.4469 202.275 86.8719 202.275ZM107.085 195.45H108.86V214H107.16V211.4C106.085 213.175 104.26 214.125 102.085 214.125C98.3348 214.125 95.5348 211.4 95.5348 207.425C95.5348 203.45 98.3348 200.75 102.085 200.75C104.185 200.75 105.985 201.65 107.085 203.35V195.45ZM102.235 212.55C105.01 212.55 107.11 210.5 107.11 207.425C107.11 204.35 105.01 202.3 102.235 202.3C99.4348 202.3 97.3348 204.35 97.3348 207.425C97.3348 210.5 99.4348 212.55 102.235 212.55ZM123.878 200.85H125.653V214H123.953V211.6C123.028 213.2 121.328 214.125 119.228 214.125C115.878 214.125 113.678 212.25 113.678 208.475V200.85H115.453V208.3C115.453 211.1 116.903 212.525 119.403 212.525C122.153 212.525 123.878 210.75 123.878 207.75V200.85ZM136.074 214.125C132.149 214.125 129.299 211.35 129.299 207.425C129.299 203.5 132.149 200.75 136.074 200.75C138.299 200.75 140.174 201.625 141.224 203.35L139.899 204.25C138.999 202.925 137.599 202.3 136.074 202.3C133.199 202.3 131.099 204.35 131.099 207.425C131.099 210.525 133.199 212.55 136.074 212.55C137.599 212.55 138.999 211.95 139.899 210.625L141.224 211.525C140.174 213.225 138.299 214.125 136.074 214.125ZM155.967 207.425C155.967 207.575 155.942 207.775 155.942 207.975H144.942C145.142 210.725 147.242 212.55 150.117 212.55C151.717 212.55 153.142 211.975 154.142 210.825L155.142 211.975C153.967 213.375 152.142 214.125 150.067 214.125C145.967 214.125 143.167 211.325 143.167 207.425C143.167 203.525 145.892 200.75 149.592 200.75C153.292 200.75 155.967 203.475 155.967 207.425ZM149.592 202.275C147.042 202.275 145.167 204.075 144.942 206.65H154.267C154.042 204.075 152.167 202.275 149.592 202.275ZM171.572 214.125C167.647 214.125 164.797 211.35 164.797 207.425C164.797 203.5 167.647 200.75 171.572 200.75C173.797 200.75 175.672 201.625 176.722 203.35L175.397 204.25C174.497 202.925 173.097 202.3 171.572 202.3C168.697 202.3 166.597 204.35 166.597 207.425C166.597 210.525 168.697 212.55 171.572 212.55C173.097 212.55 174.497 211.95 175.397 210.625L176.722 211.525C175.672 213.225 173.797 214.125 171.572 214.125ZM180.014 214V195.45H181.789V214H180.014ZM191.328 200.75C194.728 200.75 196.653 202.45 196.653 205.85V214H194.953V211.95C194.153 213.3 192.603 214.125 190.428 214.125C187.453 214.125 185.628 212.575 185.628 210.3C185.628 208.275 186.928 206.575 190.703 206.575H194.878V205.775C194.878 203.525 193.603 202.3 191.153 202.3C189.453 202.3 187.853 202.9 186.778 203.85L185.978 202.525C187.303 201.4 189.253 200.75 191.328 200.75ZM190.703 212.725C192.703 212.725 194.178 211.775 194.878 210.05V207.9H190.753C188.203 207.9 187.378 208.9 187.378 210.25C187.378 211.775 188.603 212.725 190.703 212.725ZM202.374 197.975C201.649 197.975 201.074 197.4 201.074 196.7C201.074 196.025 201.649 195.45 202.374 195.45C203.099 195.45 203.674 196 203.674 196.675C203.674 197.4 203.124 197.975 202.374 197.975ZM201.474 214V200.85H203.249V214H201.474ZM224.588 200.75C227.788 200.75 229.888 202.6 229.888 206.375V214H228.113V206.55C228.113 203.775 226.713 202.35 224.338 202.35C221.638 202.35 219.938 204.1 219.938 207.1V214H218.163V206.55C218.163 203.775 216.763 202.35 214.363 202.35C211.688 202.35 209.963 204.1 209.963 207.1V214H208.188V200.85H209.888V203.25C210.813 201.675 212.513 200.75 214.713 200.75C216.888 200.75 218.588 201.675 219.388 203.525C220.338 201.825 222.213 200.75 224.588 200.75ZM118.022 225.45H119.797V244H118.097V241.4C117.022 243.175 115.197 244.125 113.022 244.125C109.272 244.125 106.472 241.4 106.472 237.425C106.472 233.45 109.272 230.75 113.022 230.75C115.122 230.75 116.922 231.65 118.022 233.35V225.45ZM113.172 242.55C115.947 242.55 118.047 240.5 118.047 237.425C118.047 234.35 115.947 232.3 113.172 232.3C110.372 232.3 108.272 234.35 108.272 237.425C108.272 240.5 110.372 242.55 113.172 242.55ZM136.216 237.425C136.216 237.575 136.191 237.775 136.191 237.975H125.191C125.391 240.725 127.491 242.55 130.366 242.55C131.966 242.55 133.391 241.975 134.391 240.825L135.391 241.975C134.216 243.375 132.391 244.125 130.316 244.125C126.216 244.125 123.416 241.325 123.416 237.425C123.416 233.525 126.141 230.75 129.841 230.75C133.541 230.75 136.216 233.475 136.216 237.425ZM129.841 232.275C127.291 232.275 125.416 234.075 125.191 236.65H134.516C134.291 234.075 132.416 232.275 129.841 232.275ZM146.529 230.75C149.729 230.75 151.929 232.6 151.929 236.375V244H150.154V236.55C150.154 233.775 148.704 232.35 146.204 232.35C143.379 232.35 141.604 234.1 141.604 237.1V244H139.829V230.85H141.529V233.275C142.479 231.675 144.254 230.75 146.529 230.75ZM157.647 227.975C156.922 227.975 156.347 227.4 156.347 226.7C156.347 226.025 156.922 225.45 157.647 225.45C158.372 225.45 158.947 226 158.947 226.675C158.947 227.4 158.397 227.975 157.647 227.975ZM156.747 244V230.85H158.522V244H156.747ZM168.061 230.75C171.461 230.75 173.386 232.45 173.386 235.85V244H171.686V241.95C170.886 243.3 169.336 244.125 167.161 244.125C164.186 244.125 162.361 242.575 162.361 240.3C162.361 238.275 163.661 236.575 167.436 236.575H171.611V235.775C171.611 233.525 170.336 232.3 167.886 232.3C166.186 232.3 164.586 232.9 163.511 233.85L162.711 232.525C164.036 231.4 165.986 230.75 168.061 230.75ZM167.436 242.725C169.436 242.725 170.911 241.775 171.611 240.05V237.9H167.486C164.936 237.9 164.111 238.9 164.111 240.25C164.111 241.775 165.336 242.725 167.436 242.725ZM178.207 244V225.45H179.982V244H178.207ZM188.446 244.125C186.271 244.125 184.171 243.425 183.096 242.5L183.896 241.1C184.946 241.925 186.721 242.575 188.571 242.575C191.071 242.575 192.096 241.725 192.096 240.425C192.096 237 183.571 239.7 183.571 234.5C183.571 232.35 185.421 230.75 188.771 230.75C190.471 230.75 192.321 231.225 193.421 231.975L192.646 233.4C191.496 232.6 190.121 232.275 188.771 232.275C186.396 232.275 185.346 233.2 185.346 234.45C185.346 238 193.871 235.325 193.871 240.375C193.871 242.65 191.871 244.125 188.446 244.125Z" fill="black"/>
<path d="M106.15 160.25C109.35 157.483 111.867 155.217 113.7 153.45C115.567 151.65 117.117 149.783 118.35 147.85C119.583 145.917 120.2 143.983 120.2 142.05C120.2 140.05 119.717 138.483 118.75 137.35C117.817 136.217 116.333 135.65 114.3 135.65C112.333 135.65 110.8 136.283 109.7 137.55C108.633 138.783 108.067 140.45 108 142.55H102.5C102.6 138.75 103.733 135.85 105.9 133.85C108.1 131.817 110.883 130.8 114.25 130.8C117.883 130.8 120.717 131.8 122.75 133.8C124.817 135.8 125.85 138.467 125.85 141.8C125.85 144.2 125.233 146.517 124 148.75C122.8 150.95 121.35 152.933 119.65 154.7C117.983 156.433 115.85 158.45 113.25 160.75L111 162.75H126.85V167.5H102.55V163.35L106.15 160.25ZM155.357 136.45H138.607V146.4C139.307 145.467 140.341 144.683 141.707 144.05C143.107 143.417 144.591 143.1 146.157 143.1C148.957 143.1 151.224 143.7 152.957 144.9C154.724 146.1 155.974 147.617 156.707 149.45C157.474 151.283 157.857 153.217 157.857 155.25C157.857 157.717 157.374 159.917 156.407 161.85C155.474 163.75 154.057 165.25 152.157 166.35C150.291 167.45 147.991 168 145.257 168C141.624 168 138.707 167.1 136.507 165.3C134.307 163.5 132.991 161.117 132.557 158.15H138.107C138.474 159.717 139.291 160.967 140.557 161.9C141.824 162.8 143.407 163.25 145.307 163.25C147.674 163.25 149.441 162.533 150.607 161.1C151.807 159.667 152.407 157.767 152.407 155.4C152.407 153 151.807 151.167 150.607 149.9C149.407 148.6 147.641 147.95 145.307 147.95C143.674 147.95 142.291 148.367 141.157 149.2C140.057 150 139.257 151.1 138.757 152.5H133.357V131.45H155.357V136.45ZM162.891 140.35C162.891 137.917 163.591 136.017 164.991 134.65C166.424 133.25 168.258 132.55 170.491 132.55C172.724 132.55 174.541 133.25 175.941 134.65C177.374 136.017 178.091 137.917 178.091 140.35C178.091 142.783 177.374 144.7 175.941 146.1C174.541 147.5 172.724 148.2 170.491 148.2C168.258 148.2 166.424 147.5 164.991 146.1C163.591 144.7 162.891 142.783 162.891 140.35ZM193.391 133.2L173.441 168H167.841L187.791 133.2H193.391ZM170.491 136C168.391 136 167.341 137.45 167.341 140.35C167.341 143.283 168.391 144.75 170.491 144.75C171.491 144.75 172.258 144.4 172.791 143.7C173.358 142.967 173.641 141.85 173.641 140.35C173.641 137.45 172.591 136 170.491 136ZM183.241 160.8C183.241 158.367 183.941 156.467 185.341 155.1C186.774 153.7 188.608 153 190.841 153C193.041 153 194.841 153.7 196.241 155.1C197.674 156.467 198.391 158.367 198.391 160.8C198.391 163.233 197.674 165.15 196.241 166.55C194.841 167.95 193.041 168.65 190.841 168.65C188.608 168.65 186.774 167.95 185.341 166.55C183.941 165.15 183.241 163.233 183.241 160.8ZM190.791 156.45C188.691 156.45 187.641 157.9 187.641 160.8C187.641 163.7 188.691 165.15 190.791 165.15C192.891 165.15 193.941 163.7 193.941 160.8C193.941 157.9 192.891 156.45 190.791 156.45Z" fill="black"/>
<path d="M301.231 530C301.231 612.418 234.418 679.231 152 679.231C69.5824 679.231 2.76953 612.418 2.76953 530C2.76953 447.582 69.5824 380.769 152 380.769C234.418 380.769 301.231 447.582 301.231 530Z" fill="url(#paint5_linear_1019_2550)"/>
<path d="M83.1561 594H81.1311L77.1311 588.375C76.6811 588.425 76.2311 588.45 75.7311 588.45H71.0311V594H69.1811V576.5H75.7311C80.1811 576.5 82.8811 578.75 82.8811 582.5C82.8811 585.25 81.4311 587.175 78.8811 588L83.1561 594ZM75.6811 586.875C79.1811 586.875 81.0311 585.25 81.0311 582.5C81.0311 579.7 79.1811 578.1 75.6811 578.1H71.0311V586.875H75.6811ZM98.3475 587.425C98.3475 587.575 98.3225 587.775 98.3225 587.975H87.3225C87.5225 590.725 89.6225 592.55 92.4975 592.55C94.0975 592.55 95.5225 591.975 96.5225 590.825L97.5225 591.975C96.3475 593.375 94.5225 594.125 92.4475 594.125C88.3475 594.125 85.5475 591.325 85.5475 587.425C85.5475 583.525 88.2725 580.75 91.9725 580.75C95.6725 580.75 98.3475 583.475 98.3475 587.425ZM91.9725 582.275C89.4225 582.275 87.5475 584.075 87.3225 586.65H96.6475C96.4225 584.075 94.5475 582.275 91.9725 582.275ZM112.185 575.45H113.96V594H112.26V591.4C111.185 593.175 109.36 594.125 107.185 594.125C103.435 594.125 100.635 591.4 100.635 587.425C100.635 583.45 103.435 580.75 107.185 580.75C109.285 580.75 111.085 581.65 112.185 583.35V575.45ZM107.335 592.55C110.11 592.55 112.21 590.5 112.21 587.425C112.21 584.35 110.11 582.3 107.335 582.3C104.535 582.3 102.435 584.35 102.435 587.425C102.435 590.5 104.535 592.55 107.335 592.55ZM128.979 580.85H130.754V594H129.054V591.6C128.129 593.2 126.429 594.125 124.329 594.125C120.979 594.125 118.779 592.25 118.779 588.475V580.85H120.554V588.3C120.554 591.1 122.004 592.525 124.504 592.525C127.254 592.525 128.979 590.75 128.979 587.75V580.85ZM141.175 594.125C137.25 594.125 134.4 591.35 134.4 587.425C134.4 583.5 137.25 580.75 141.175 580.75C143.4 580.75 145.275 581.625 146.325 583.35L145 584.25C144.1 582.925 142.7 582.3 141.175 582.3C138.3 582.3 136.2 584.35 136.2 587.425C136.2 590.525 138.3 592.55 141.175 592.55C142.7 592.55 144.1 591.95 145 590.625L146.325 591.525C145.275 593.225 143.4 594.125 141.175 594.125ZM161.067 587.425C161.067 587.575 161.042 587.775 161.042 587.975H150.042C150.242 590.725 152.342 592.55 155.217 592.55C156.817 592.55 158.242 591.975 159.242 590.825L160.242 591.975C159.067 593.375 157.242 594.125 155.167 594.125C151.067 594.125 148.267 591.325 148.267 587.425C148.267 583.525 150.992 580.75 154.692 580.75C158.392 580.75 161.067 583.475 161.067 587.425ZM154.692 582.275C152.142 582.275 150.267 584.075 150.042 586.65H159.367C159.142 584.075 157.267 582.275 154.692 582.275ZM174.998 594V578.1H168.848V576.5H182.998V578.1H176.848V594H174.998ZM186.137 577.975C185.412 577.975 184.837 577.4 184.837 576.7C184.837 576.025 185.412 575.45 186.137 575.45C186.862 575.45 187.437 576 187.437 576.675C187.437 577.4 186.887 577.975 186.137 577.975ZM185.237 594V580.85H187.012V594H185.237ZM208.351 580.75C211.551 580.75 213.651 582.6 213.651 586.375V594H211.876V586.55C211.876 583.775 210.476 582.35 208.101 582.35C205.401 582.35 203.701 584.1 203.701 587.1V594H201.926V586.55C201.926 583.775 200.526 582.35 198.126 582.35C195.451 582.35 193.726 584.1 193.726 587.1V594H191.951V580.85H193.651V583.25C194.576 581.675 196.276 580.75 198.476 580.75C200.651 580.75 202.351 581.675 203.151 583.525C204.101 581.825 205.976 580.75 208.351 580.75ZM229.988 587.425C229.988 587.575 229.963 587.775 229.963 587.975H218.963C219.163 590.725 221.263 592.55 224.138 592.55C225.738 592.55 227.163 591.975 228.163 590.825L229.163 591.975C227.988 593.375 226.163 594.125 224.088 594.125C219.988 594.125 217.188 591.325 217.188 587.425C217.188 583.525 219.913 580.75 223.613 580.75C227.313 580.75 229.988 583.475 229.988 587.425ZM223.613 582.275C221.063 582.275 219.188 584.075 218.963 586.65H228.288C228.063 584.075 226.188 582.275 223.613 582.275ZM122.431 624.15C119.806 624.15 117.231 623.225 115.931 621.875L116.656 620.45C117.906 621.675 120.131 622.575 122.431 622.575C125.706 622.575 127.131 621.2 127.131 619.475C127.131 614.675 116.356 617.625 116.356 611.15C116.356 608.575 118.356 606.35 122.806 606.35C124.781 606.35 126.831 606.925 128.231 607.9L127.606 609.375C126.106 608.4 124.356 607.925 122.806 607.925C119.606 607.925 118.181 609.35 118.181 611.1C118.181 615.9 128.956 613 128.956 619.375C128.956 621.95 126.906 624.15 122.431 624.15ZM139.387 610.75C143.137 610.75 145.937 613.45 145.937 617.425C145.937 621.425 143.137 624.125 139.387 624.125C137.287 624.125 135.487 623.225 134.387 621.525V628.85H132.612V610.85H134.312V613.45C135.387 611.7 137.212 610.75 139.387 610.75ZM139.262 622.55C142.037 622.55 144.162 620.5 144.162 617.425C144.162 614.375 142.037 612.3 139.262 612.3C136.462 612.3 134.362 614.375 134.362 617.425C134.362 620.5 136.462 622.55 139.262 622.55ZM161.031 617.425C161.031 617.575 161.006 617.775 161.006 617.975H150.006C150.206 620.725 152.306 622.55 155.181 622.55C156.781 622.55 158.206 621.975 159.206 620.825L160.206 621.975C159.031 623.375 157.206 624.125 155.131 624.125C151.031 624.125 148.231 621.325 148.231 617.425C148.231 613.525 150.956 610.75 154.656 610.75C158.356 610.75 161.031 613.475 161.031 617.425ZM154.656 612.275C152.106 612.275 150.231 614.075 150.006 616.65H159.331C159.106 614.075 157.231 612.275 154.656 612.275ZM171.343 610.75C174.543 610.75 176.743 612.6 176.743 616.375V624H174.968V616.55C174.968 613.775 173.518 612.35 171.018 612.35C168.193 612.35 166.418 614.1 166.418 617.1V624H164.643V610.85H166.343V613.275C167.293 611.675 169.068 610.75 171.343 610.75ZM187.862 621.925L188.487 623.2C187.787 623.825 186.737 624.125 185.712 624.125C183.237 624.125 181.862 622.725 181.862 620.3V612.35H179.512V610.85H181.862V607.975H183.637V610.85H187.637V612.35H183.637V620.2C183.637 621.75 184.437 622.6 185.912 622.6C186.637 622.6 187.362 622.375 187.862 621.925Z" fill="black"/>
<path d="M128.1 515.95L114.2 548H108.45L122.5 516.55H104V511.7H128.1V515.95ZM156.479 516.45H139.729V526.4C140.429 525.467 141.462 524.683 142.829 524.05C144.229 523.417 145.712 523.1 147.279 523.1C150.079 523.1 152.345 523.7 154.079 524.9C155.845 526.1 157.095 527.617 157.829 529.45C158.595 531.283 158.979 533.217 158.979 535.25C158.979 537.717 158.495 539.917 157.529 541.85C156.595 543.75 155.179 545.25 153.279 546.35C151.412 547.45 149.112 548 146.379 548C142.745 548 139.829 547.1 137.629 545.3C135.429 543.5 134.112 541.117 133.679 538.15H139.229C139.595 539.717 140.412 540.967 141.679 541.9C142.945 542.8 144.529 543.25 146.429 543.25C148.795 543.25 150.562 542.533 151.729 541.1C152.929 539.667 153.529 537.767 153.529 535.4C153.529 533 152.929 531.167 151.729 529.9C150.529 528.6 148.762 527.95 146.429 527.95C144.795 527.95 143.412 528.367 142.279 529.2C141.179 530 140.379 531.1 139.879 532.5H134.479V511.45H156.479V516.45ZM164.012 520.35C164.012 517.917 164.712 516.017 166.112 514.65C167.545 513.25 169.379 512.55 171.612 512.55C173.845 512.55 175.662 513.25 177.062 514.65C178.495 516.017 179.212 517.917 179.212 520.35C179.212 522.783 178.495 524.7 177.062 526.1C175.662 527.5 173.845 528.2 171.612 528.2C169.379 528.2 167.545 527.5 166.112 526.1C164.712 524.7 164.012 522.783 164.012 520.35ZM194.512 513.2L174.562 548H168.962L188.912 513.2H194.512ZM171.612 516C169.512 516 168.462 517.45 168.462 520.35C168.462 523.283 169.512 524.75 171.612 524.75C172.612 524.75 173.379 524.4 173.912 523.7C174.479 522.967 174.762 521.85 174.762 520.35C174.762 517.45 173.712 516 171.612 516ZM184.362 540.8C184.362 538.367 185.062 536.467 186.462 535.1C187.895 533.7 189.729 533 191.962 533C194.162 533 195.962 533.7 197.362 535.1C198.795 536.467 199.512 538.367 199.512 540.8C199.512 543.233 198.795 545.15 197.362 546.55C195.962 547.95 194.162 548.65 191.962 548.65C189.729 548.65 187.895 547.95 186.462 546.55C185.062 545.15 184.362 543.233 184.362 540.8ZM191.912 536.45C189.812 536.45 188.762 537.9 188.762 540.8C188.762 543.7 189.812 545.15 191.912 545.15C194.012 545.15 195.062 543.7 195.062 540.8C195.062 537.9 194.012 536.45 191.912 536.45Z" fill="black"/>
<path d="M647.231 529C647.231 611.418 580.418 678.231 498 678.231C415.582 678.231 348.77 611.418 348.77 529C348.77 446.582 415.582 379.769 498 379.769C580.418 379.769 647.231 446.582 647.231 529Z" fill="url(#paint6_linear_1019_2550)"/>
<path d="M427.81 596.4H438.335V598H425.96V580.5H437.96V582.1H427.81V588.325H436.86V589.9H427.81V596.4ZM442.308 598V579.45H444.083V598H442.308ZM449.922 581.975C449.197 581.975 448.622 581.4 448.622 580.7C448.622 580.025 449.197 579.45 449.922 579.45C450.647 579.45 451.222 580 451.222 580.675C451.222 581.4 450.672 581.975 449.922 581.975ZM449.022 598V584.85H450.797V598H449.022ZM472.136 584.75C475.336 584.75 477.436 586.6 477.436 590.375V598H475.661V590.55C475.661 587.775 474.261 586.35 471.886 586.35C469.186 586.35 467.486 588.1 467.486 591.1V598H465.711V590.55C465.711 587.775 464.311 586.35 461.911 586.35C459.236 586.35 457.511 588.1 457.511 591.1V598H455.736V584.85H457.436V587.25C458.361 585.675 460.061 584.75 462.261 584.75C464.436 584.75 466.136 585.675 466.936 587.525C467.886 585.825 469.761 584.75 472.136 584.75ZM483.15 581.975C482.425 581.975 481.85 581.4 481.85 580.7C481.85 580.025 482.425 579.45 483.15 579.45C483.875 579.45 484.45 580 484.45 580.675C484.45 581.4 483.9 581.975 483.15 581.975ZM482.25 598V584.85H484.025V598H482.25ZM495.664 584.75C498.864 584.75 501.064 586.6 501.064 590.375V598H499.289V590.55C499.289 587.775 497.839 586.35 495.339 586.35C492.514 586.35 490.739 588.1 490.739 591.1V598H488.964V584.85H490.664V587.275C491.614 585.675 493.389 584.75 495.664 584.75ZM510.483 584.75C513.883 584.75 515.808 586.45 515.808 589.85V598H514.108V595.95C513.308 597.3 511.758 598.125 509.583 598.125C506.608 598.125 504.783 596.575 504.783 594.3C504.783 592.275 506.083 590.575 509.858 590.575H514.033V589.775C514.033 587.525 512.758 586.3 510.308 586.3C508.608 586.3 507.008 586.9 505.933 587.85L505.133 586.525C506.458 585.4 508.408 584.75 510.483 584.75ZM509.858 596.725C511.858 596.725 513.333 595.775 514.033 594.05V591.9H509.908C507.358 591.9 506.533 592.9 506.533 594.25C506.533 595.775 507.758 596.725 509.858 596.725ZM526.929 595.925L527.554 597.2C526.854 597.825 525.804 598.125 524.779 598.125C522.304 598.125 520.929 596.725 520.929 594.3V586.35H518.579V584.85H520.929V581.975H522.704V584.85H526.704V586.35H522.704V594.2C522.704 595.75 523.504 596.6 524.979 596.6C525.704 596.6 526.429 596.375 526.929 595.925ZM541.796 591.425C541.796 591.575 541.771 591.775 541.771 591.975H530.771C530.971 594.725 533.071 596.55 535.946 596.55C537.546 596.55 538.971 595.975 539.971 594.825L540.971 595.975C539.796 597.375 537.971 598.125 535.896 598.125C531.796 598.125 528.996 595.325 528.996 591.425C528.996 587.525 531.721 584.75 535.421 584.75C539.121 584.75 541.796 587.475 541.796 591.425ZM535.421 586.275C532.871 586.275 530.996 588.075 530.771 590.65H540.096C539.871 588.075 537.996 586.275 535.421 586.275ZM552.852 581.975C552.127 581.975 551.552 581.4 551.552 580.7C551.552 580.025 552.127 579.45 552.852 579.45C553.577 579.45 554.152 580 554.152 580.675C554.152 581.4 553.602 581.975 552.852 581.975ZM551.952 598V584.85H553.727V598H551.952ZM564.966 595.925L565.591 597.2C564.891 597.825 563.841 598.125 562.816 598.125C560.341 598.125 558.966 596.725 558.966 594.3V586.35H556.616V584.85H558.966V581.975H560.741V584.85H564.741V586.35H560.741V594.2C560.741 595.75 561.541 596.6 563.016 596.6C563.741 596.6 564.466 596.375 564.966 595.925ZM429.696 628.125C427.521 628.125 425.421 627.425 424.346 626.5L425.146 625.1C426.196 625.925 427.971 626.575 429.821 626.575C432.321 626.575 433.346 625.725 433.346 624.425C433.346 621 424.821 623.7 424.821 618.5C424.821 616.35 426.671 614.75 430.021 614.75C431.721 614.75 433.571 615.225 434.671 615.975L433.896 617.4C432.746 616.6 431.371 616.275 430.021 616.275C427.646 616.275 426.596 617.2 426.596 618.45C426.596 622 435.121 619.325 435.121 624.375C435.121 626.65 433.121 628.125 429.696 628.125ZM448.477 614.85H450.252V628H448.552V625.6C447.627 627.2 445.927 628.125 443.827 628.125C440.477 628.125 438.277 626.25 438.277 622.475V614.85H440.052V622.3C440.052 625.1 441.502 626.525 444.002 626.525C446.752 626.525 448.477 624.75 448.477 621.75V614.85ZM460.674 628.125C456.749 628.125 453.899 625.35 453.899 621.425C453.899 617.5 456.749 614.75 460.674 614.75C462.899 614.75 464.774 615.625 465.824 617.35L464.499 618.25C463.599 616.925 462.199 616.3 460.674 616.3C457.799 616.3 455.699 618.35 455.699 621.425C455.699 624.525 457.799 626.55 460.674 626.55C462.199 626.55 463.599 625.95 464.499 624.625L465.824 625.525C464.774 627.225 462.899 628.125 460.674 628.125ZM474.541 628.125C470.616 628.125 467.766 625.35 467.766 621.425C467.766 617.5 470.616 614.75 474.541 614.75C476.766 614.75 478.641 615.625 479.691 617.35L478.366 618.25C477.466 616.925 476.066 616.3 474.541 616.3C471.666 616.3 469.566 618.35 469.566 621.425C469.566 624.525 471.666 626.55 474.541 626.55C476.066 626.55 477.466 625.95 478.366 624.625L479.691 625.525C478.641 627.225 476.766 628.125 474.541 628.125ZM494.433 621.425C494.433 621.575 494.408 621.775 494.408 621.975H483.408C483.608 624.725 485.708 626.55 488.583 626.55C490.183 626.55 491.608 625.975 492.608 624.825L493.608 625.975C492.433 627.375 490.608 628.125 488.533 628.125C484.433 628.125 481.633 625.325 481.633 621.425C481.633 617.525 484.358 614.75 488.058 614.75C491.758 614.75 494.433 617.475 494.433 621.425ZM488.058 616.275C485.508 616.275 483.633 618.075 483.408 620.65H492.733C492.508 618.075 490.633 616.275 488.058 616.275ZM501.571 628.125C499.396 628.125 497.296 627.425 496.221 626.5L497.021 625.1C498.071 625.925 499.846 626.575 501.696 626.575C504.196 626.575 505.221 625.725 505.221 624.425C505.221 621 496.696 623.7 496.696 618.5C496.696 616.35 498.546 614.75 501.896 614.75C503.596 614.75 505.446 615.225 506.546 615.975L505.771 617.4C504.621 616.6 503.246 616.275 501.896 616.275C499.521 616.275 498.471 617.2 498.471 618.45C498.471 622 506.996 619.325 506.996 624.375C506.996 626.65 504.996 628.125 501.571 628.125ZM513.802 628.125C511.627 628.125 509.527 627.425 508.452 626.5L509.252 625.1C510.302 625.925 512.077 626.575 513.927 626.575C516.427 626.575 517.452 625.725 517.452 624.425C517.452 621 508.927 623.7 508.927 618.5C508.927 616.35 510.777 614.75 514.127 614.75C515.827 614.75 517.677 615.225 518.777 615.975L518.002 617.4C516.852 616.6 515.477 616.275 514.127 616.275C511.752 616.275 510.702 617.2 510.702 618.45C510.702 622 519.227 619.325 519.227 624.375C519.227 626.65 517.227 628.125 513.802 628.125ZM526.859 610.825C525.334 610.825 524.534 611.675 524.534 613.3V614.85H528.584V616.35H524.584V628H522.809V616.35H520.459V614.85H522.809V613.225C522.809 610.875 524.209 609.325 526.784 609.325C527.759 609.325 528.759 609.6 529.409 610.15L528.809 611.475C528.309 611.05 527.609 610.825 526.859 610.825ZM541.055 614.85H542.83V628H541.13V625.6C540.205 627.2 538.505 628.125 536.405 628.125C533.055 628.125 530.855 626.25 530.855 622.475V614.85H532.63V622.3C532.63 625.1 534.08 626.525 536.58 626.525C539.33 626.525 541.055 624.75 541.055 621.75V614.85ZM547.802 628V609.45H549.577V628H547.802ZM554.516 628V609.45H556.291V628H554.516ZM570.529 614.85H572.279L565.704 629.575C564.604 632.15 563.204 632.975 561.329 632.975C560.104 632.975 558.929 632.575 558.129 631.775L558.954 630.45C559.604 631.1 560.404 631.45 561.354 631.45C562.529 631.45 563.329 630.9 564.079 629.25L564.654 627.975L558.779 614.85H560.629L565.579 626.025L570.529 614.85Z" fill="black"/>
<path d="M439.25 515.75V510.55H449.65V547H443.9V515.75H439.25ZM457.48 528.3C457.48 522.533 458.447 518.033 460.38 514.8C462.347 511.533 465.714 509.9 470.48 509.9C475.247 509.9 478.597 511.533 480.53 514.8C482.497 518.033 483.48 522.533 483.48 528.3C483.48 534.133 482.497 538.7 480.53 542C478.597 545.267 475.247 546.9 470.48 546.9C465.714 546.9 462.347 545.267 460.38 542C458.447 538.7 457.48 534.133 457.48 528.3ZM477.88 528.3C477.88 525.6 477.697 523.317 477.33 521.45C476.997 519.583 476.297 518.067 475.23 516.9C474.164 515.7 472.58 515.1 470.48 515.1C468.38 515.1 466.797 515.7 465.73 516.9C464.664 518.067 463.947 519.583 463.58 521.45C463.247 523.317 463.08 525.6 463.08 528.3C463.08 531.1 463.247 533.45 463.58 535.35C463.914 537.25 464.614 538.783 465.68 539.95C466.78 541.117 468.38 541.7 470.48 541.7C472.58 541.7 474.164 541.117 475.23 539.95C476.33 538.783 477.047 537.25 477.38 535.35C477.714 533.45 477.88 531.1 477.88 528.3ZM489.512 528.3C489.512 522.533 490.478 518.033 492.412 514.8C494.378 511.533 497.745 509.9 502.512 509.9C507.278 509.9 510.628 511.533 512.562 514.8C514.528 518.033 515.512 522.533 515.512 528.3C515.512 534.133 514.528 538.7 512.562 542C510.628 545.267 507.278 546.9 502.512 546.9C497.745 546.9 494.378 545.267 492.412 542C490.478 538.7 489.512 534.133 489.512 528.3ZM509.912 528.3C509.912 525.6 509.728 523.317 509.362 521.45C509.028 519.583 508.328 518.067 507.262 516.9C506.195 515.7 504.612 515.1 502.512 515.1C500.412 515.1 498.828 515.7 497.762 516.9C496.695 518.067 495.978 519.583 495.612 521.45C495.278 523.317 495.112 525.6 495.112 528.3C495.112 531.1 495.278 533.45 495.612 535.35C495.945 537.25 496.645 538.783 497.712 539.95C498.812 541.117 500.412 541.7 502.512 541.7C504.612 541.7 506.195 541.117 507.262 539.95C508.362 538.783 509.078 537.25 509.412 535.35C509.745 533.45 509.912 531.1 509.912 528.3ZM520.643 519.35C520.643 516.917 521.343 515.017 522.743 513.65C524.176 512.25 526.01 511.55 528.243 511.55C530.476 511.55 532.293 512.25 533.693 513.65C535.126 515.017 535.843 516.917 535.843 519.35C535.843 521.783 535.126 523.7 533.693 525.1C532.293 526.5 530.476 527.2 528.243 527.2C526.01 527.2 524.176 526.5 522.743 525.1C521.343 523.7 520.643 521.783 520.643 519.35ZM551.143 512.2L531.193 547H525.593L545.543 512.2H551.143ZM528.243 515C526.143 515 525.093 516.45 525.093 519.35C525.093 522.283 526.143 523.75 528.243 523.75C529.243 523.75 530.01 523.4 530.543 522.7C531.11 521.967 531.393 520.85 531.393 519.35C531.393 516.45 530.343 515 528.243 515ZM540.993 539.8C540.993 537.367 541.693 535.467 543.093 534.1C544.526 532.7 546.36 532 548.593 532C550.793 532 552.593 532.7 553.993 534.1C555.426 535.467 556.143 537.367 556.143 539.8C556.143 542.233 555.426 544.15 553.993 545.55C552.593 546.95 550.793 547.65 548.593 547.65C546.36 547.65 544.526 546.95 543.093 545.55C541.693 544.15 540.993 542.233 540.993 539.8ZM548.543 535.45C546.443 535.45 545.393 536.9 545.393 539.8C545.393 542.7 546.443 544.15 548.543 544.15C550.643 544.15 551.693 542.7 551.693 539.8C551.693 536.9 550.643 535.45 548.543 535.45Z" fill="black"/>
<path d="M993.231 530C993.231 612.418 926.418 679.231 844 679.231C761.582 679.231 694.77 612.418 694.77 530C694.77 447.582 761.582 380.769 844 380.769C926.418 380.769 993.231 447.582 993.231 530Z" fill="url(#paint7_linear_1019_2550)"/>
<path d="M774.289 594H772.264L768.264 588.375C767.814 588.425 767.364 588.45 766.864 588.45H762.164V594H760.314V576.5H766.864C771.314 576.5 774.014 578.75 774.014 582.5C774.014 585.25 772.564 587.175 770.014 588L774.289 594ZM766.814 586.875C770.314 586.875 772.164 585.25 772.164 582.5C772.164 579.7 770.314 578.1 766.814 578.1H762.164V586.875H766.814ZM789.481 587.425C789.481 587.575 789.456 587.775 789.456 587.975H778.456C778.656 590.725 780.756 592.55 783.631 592.55C785.231 592.55 786.656 591.975 787.656 590.825L788.656 591.975C787.481 593.375 785.656 594.125 783.581 594.125C779.481 594.125 776.681 591.325 776.681 587.425C776.681 583.525 779.406 580.75 783.106 580.75C786.806 580.75 789.481 583.475 789.481 587.425ZM783.106 582.275C780.556 582.275 778.681 584.075 778.456 586.65H787.781C787.556 584.075 785.681 582.275 783.106 582.275ZM803.319 575.45H805.094V594H803.394V591.4C802.319 593.175 800.494 594.125 798.319 594.125C794.569 594.125 791.769 591.4 791.769 587.425C791.769 583.45 794.569 580.75 798.319 580.75C800.419 580.75 802.219 581.65 803.319 583.35V575.45ZM798.469 592.55C801.244 592.55 803.344 590.5 803.344 587.425C803.344 584.35 801.244 582.3 798.469 582.3C795.669 582.3 793.569 584.35 793.569 587.425C793.569 590.5 795.669 592.55 798.469 592.55ZM820.112 580.85H821.887V594H820.187V591.6C819.262 593.2 817.562 594.125 815.462 594.125C812.112 594.125 809.912 592.25 809.912 588.475V580.85H811.687V588.3C811.687 591.1 813.137 592.525 815.637 592.525C818.387 592.525 820.112 590.75 820.112 587.75V580.85ZM832.308 594.125C828.383 594.125 825.533 591.35 825.533 587.425C825.533 583.5 828.383 580.75 832.308 580.75C834.533 580.75 836.408 581.625 837.458 583.35L836.133 584.25C835.233 582.925 833.833 582.3 832.308 582.3C829.433 582.3 827.333 584.35 827.333 587.425C827.333 590.525 829.433 592.55 832.308 592.55C833.833 592.55 835.233 591.95 836.133 590.625L837.458 591.525C836.408 593.225 834.533 594.125 832.308 594.125ZM852.2 587.425C852.2 587.575 852.175 587.775 852.175 587.975H841.175C841.375 590.725 843.475 592.55 846.35 592.55C847.95 592.55 849.375 591.975 850.375 590.825L851.375 591.975C850.2 593.375 848.375 594.125 846.3 594.125C842.2 594.125 839.4 591.325 839.4 587.425C839.4 583.525 842.125 580.75 845.825 580.75C849.525 580.75 852.2 583.475 852.2 587.425ZM845.825 582.275C843.275 582.275 841.4 584.075 841.175 586.65H850.5C850.275 584.075 848.4 582.275 845.825 582.275ZM862.356 594V575.45H864.131V594H862.356ZM873.67 580.75C877.07 580.75 878.995 582.45 878.995 585.85V594H877.295V591.95C876.495 593.3 874.945 594.125 872.77 594.125C869.795 594.125 867.97 592.575 867.97 590.3C867.97 588.275 869.27 586.575 873.045 586.575H877.22V585.775C877.22 583.525 875.945 582.3 873.495 582.3C871.795 582.3 870.195 582.9 869.12 583.85L868.32 582.525C869.645 581.4 871.595 580.75 873.67 580.75ZM873.045 592.725C875.045 592.725 876.52 591.775 877.22 590.05V587.9H873.095C870.545 587.9 869.72 588.9 869.72 590.25C869.72 591.775 870.945 592.725 873.045 592.725ZM890.591 580.75C894.341 580.75 897.141 583.45 897.141 587.425C897.141 591.4 894.341 594.125 890.591 594.125C888.416 594.125 886.591 593.175 885.516 591.4V594H883.816V575.45H885.591V583.35C886.691 581.65 888.491 580.75 890.591 580.75ZM890.466 592.55C893.241 592.55 895.366 590.5 895.366 587.425C895.366 584.35 893.241 582.3 890.466 582.3C887.666 582.3 885.566 584.35 885.566 587.425C885.566 590.5 887.666 592.55 890.466 592.55ZM906.135 594.125C902.285 594.125 899.435 591.325 899.435 587.425C899.435 583.525 902.285 580.75 906.135 580.75C909.985 580.75 912.81 583.525 912.81 587.425C912.81 591.325 909.985 594.125 906.135 594.125ZM906.135 592.55C908.935 592.55 911.01 590.5 911.01 587.425C911.01 584.35 908.935 582.3 906.135 582.3C903.335 582.3 901.235 584.35 901.235 587.425C901.235 590.5 903.335 592.55 906.135 592.55ZM918.133 583.425C918.958 581.675 920.633 580.75 923.058 580.75V582.475C922.908 582.475 922.758 582.45 922.633 582.45C919.883 582.45 918.208 584.2 918.208 587.3V594H916.433V580.85H918.133V583.425ZM819.845 624.125C815.92 624.125 813.07 621.35 813.07 617.425C813.07 613.5 815.92 610.75 819.845 610.75C822.07 610.75 823.945 611.625 824.995 613.35L823.67 614.25C822.77 612.925 821.37 612.3 819.845 612.3C816.97 612.3 814.87 614.35 814.87 617.425C814.87 620.525 816.97 622.55 819.845 622.55C821.37 622.55 822.77 621.95 823.67 620.625L824.995 621.525C823.945 623.225 822.07 624.125 819.845 624.125ZM833.637 624.125C829.787 624.125 826.937 621.325 826.937 617.425C826.937 613.525 829.787 610.75 833.637 610.75C837.487 610.75 840.312 613.525 840.312 617.425C840.312 621.325 837.487 624.125 833.637 624.125ZM833.637 622.55C836.437 622.55 838.512 620.5 838.512 617.425C838.512 614.35 836.437 612.3 833.637 612.3C830.837 612.3 828.737 614.35 828.737 617.425C828.737 620.5 830.837 622.55 833.637 622.55ZM847.461 624.125C845.286 624.125 843.186 623.425 842.111 622.5L842.911 621.1C843.961 621.925 845.736 622.575 847.586 622.575C850.086 622.575 851.111 621.725 851.111 620.425C851.111 617 842.586 619.7 842.586 614.5C842.586 612.35 844.436 610.75 847.786 610.75C849.486 610.75 851.336 611.225 852.436 611.975L851.661 613.4C850.511 612.6 849.136 612.275 847.786 612.275C845.411 612.275 844.361 613.2 844.361 614.45C844.361 618 852.886 615.325 852.886 620.375C852.886 622.65 850.886 624.125 847.461 624.125ZM862.467 621.925L863.092 623.2C862.392 623.825 861.342 624.125 860.317 624.125C857.842 624.125 856.467 622.725 856.467 620.3V612.35H854.117V610.85H856.467V607.975H858.242V610.85H862.242V612.35H858.242V620.2C858.242 621.75 859.042 622.6 860.517 622.6C861.242 622.6 861.967 622.375 862.467 621.925ZM869.849 624.125C867.674 624.125 865.574 623.425 864.499 622.5L865.299 621.1C866.349 621.925 868.124 622.575 869.974 622.575C872.474 622.575 873.499 621.725 873.499 620.425C873.499 617 864.974 619.7 864.974 614.5C864.974 612.35 866.824 610.75 870.174 610.75C871.874 610.75 873.724 611.225 874.824 611.975L874.049 613.4C872.899 612.6 871.524 612.275 870.174 612.275C867.799 612.275 866.749 613.2 866.749 614.45C866.749 618 875.274 615.325 875.274 620.375C875.274 622.65 873.274 624.125 869.849 624.125Z" fill="black"/>
<path d="M818.5 516.45H801.75V526.4C802.45 525.467 803.483 524.683 804.85 524.05C806.25 523.417 807.733 523.1 809.3 523.1C812.1 523.1 814.367 523.7 816.1 524.9C817.867 526.1 819.117 527.617 819.85 529.45C820.617 531.283 821 533.217 821 535.25C821 537.717 820.517 539.917 819.55 541.85C818.617 543.75 817.2 545.25 815.3 546.35C813.433 547.45 811.133 548 808.4 548C804.767 548 801.85 547.1 799.65 545.3C797.45 543.5 796.133 541.117 795.7 538.15H801.25C801.617 539.717 802.433 540.967 803.7 541.9C804.967 542.8 806.55 543.25 808.45 543.25C810.817 543.25 812.583 542.533 813.75 541.1C814.95 539.667 815.55 537.767 815.55 535.4C815.55 533 814.95 531.167 813.75 529.9C812.55 528.6 810.783 527.95 808.45 527.95C806.817 527.95 805.433 528.367 804.3 529.2C803.2 530 802.4 531.1 801.9 532.5H796.5V511.45H818.5V516.45ZM826.934 529.3C826.934 523.533 827.9 519.033 829.834 515.8C831.8 512.533 835.167 510.9 839.934 510.9C844.7 510.9 848.05 512.533 849.984 515.8C851.95 519.033 852.934 523.533 852.934 529.3C852.934 535.133 851.95 539.7 849.984 543C848.05 546.267 844.7 547.9 839.934 547.9C835.167 547.9 831.8 546.267 829.834 543C827.9 539.7 826.934 535.133 826.934 529.3ZM847.334 529.3C847.334 526.6 847.15 524.317 846.784 522.45C846.45 520.583 845.75 519.067 844.684 517.9C843.617 516.7 842.034 516.1 839.934 516.1C837.834 516.1 836.25 516.7 835.184 517.9C834.117 519.067 833.4 520.583 833.034 522.45C832.7 524.317 832.534 526.6 832.534 529.3C832.534 532.1 832.7 534.45 833.034 536.35C833.367 538.25 834.067 539.783 835.134 540.95C836.234 542.117 837.834 542.7 839.934 542.7C842.034 542.7 843.617 542.117 844.684 540.95C845.784 539.783 846.5 538.25 846.834 536.35C847.167 534.45 847.334 532.1 847.334 529.3ZM858.065 520.35C858.065 517.917 858.765 516.017 860.165 514.65C861.598 513.25 863.432 512.55 865.665 512.55C867.898 512.55 869.715 513.25 871.115 514.65C872.548 516.017 873.265 517.917 873.265 520.35C873.265 522.783 872.548 524.7 871.115 526.1C869.715 527.5 867.898 528.2 865.665 528.2C863.432 528.2 861.598 527.5 860.165 526.1C858.765 524.7 858.065 522.783 858.065 520.35ZM888.565 513.2L868.615 548H863.015L882.965 513.2H888.565ZM865.665 516C863.565 516 862.515 517.45 862.515 520.35C862.515 523.283 863.565 524.75 865.665 524.75C866.665 524.75 867.432 524.4 867.965 523.7C868.532 522.967 868.815 521.85 868.815 520.35C868.815 517.45 867.765 516 865.665 516ZM878.415 540.8C878.415 538.367 879.115 536.467 880.515 535.1C881.948 533.7 883.782 533 886.015 533C888.215 533 890.015 533.7 891.415 535.1C892.848 536.467 893.565 538.367 893.565 540.8C893.565 543.233 892.848 545.15 891.415 546.55C890.015 547.95 888.215 548.65 886.015 548.65C883.782 548.65 881.948 547.95 880.515 546.55C879.115 545.15 878.415 543.233 878.415 540.8ZM885.965 536.45C883.865 536.45 882.815 537.9 882.815 540.8C882.815 543.7 883.865 545.15 885.965 545.15C888.065 545.15 889.115 543.7 889.115 540.8C889.115 537.9 888.065 536.45 885.965 536.45Z" fill="black"/>
<defs>
<linearGradient id="paint0_linear_1019_2550" x1="1040.77" y1="530" x2="1339.23" y2="530" gradientUnits="userSpaceOnUse">
<stop stop-color="#FFCC00"/>
<stop offset="1" stop-color="#FFEDA3"/>
</linearGradient>
<linearGradient id="paint1_linear_1019_2550" x1="1035.77" y1="150" x2="1334.23" y2="150" gradientUnits="userSpaceOnUse">
<stop stop-color="#FFCC00"/>
<stop offset="1" stop-color="#FFEDA3"/>
</linearGradient>
<linearGradient id="paint2_linear_1019_2550" x1="690.77" y1="152" x2="989.231" y2="152" gradientUnits="userSpaceOnUse">
<stop stop-color="#FFCC00"/>
<stop offset="1" stop-color="#FFEDA3"/>
</linearGradient>
<linearGradient id="paint3_linear_1019_2550" x1="345.77" y1="150" x2="644.231" y2="150" gradientUnits="userSpaceOnUse">
<stop stop-color="#FFCC00"/>
<stop offset="1" stop-color="#FFEDA3"/>
</linearGradient>
<linearGradient id="paint4_linear_1019_2550" x1="0.769531" y1="150" x2="299.231" y2="150" gradientUnits="userSpaceOnUse">
<stop stop-color="#FFCC00"/>
<stop offset="1" stop-color="#FFEDA3"/>
</linearGradient>
<linearGradient id="paint5_linear_1019_2550" x1="2.76953" y1="530" x2="301.231" y2="530" gradientUnits="userSpaceOnUse">
<stop stop-color="#FFCC00"/>
<stop offset="1" stop-color="#FFEDA3"/>
</linearGradient>
<linearGradient id="paint6_linear_1019_2550" x1="348.77" y1="529" x2="647.231" y2="529" gradientUnits="userSpaceOnUse">
<stop stop-color="#FFCC00"/>
<stop offset="1" stop-color="#FFEDA3"/>
</linearGradient>
<linearGradient id="paint7_linear_1019_2550" x1="694.77" y1="530" x2="993.231" y2="530" gradientUnits="userSpaceOnUse">
<stop stop-color="#FFCC00"/>
<stop offset="1" stop-color="#FFEDA3"/>
</linearGradient>
</defs>
</svg>