<svg xmlns="http://www.w3.org/2000/svg" width="207" height="70" viewBox="0 0 207 70" fill="none">
<path fill-rule="evenodd" clip-rule="evenodd" d="M39.2806 0C40.2108 0.0969217 41.141 0.193843 42.0713 0.322911C48.5485 1.16163 54.3709 3.45274 59.5047 7.19578C66.0508 11.9719 70.5297 18.1024 72.528 25.6211C75.698 37.6894 72.8038 48.467 63.9835 57.7927C63.0878 58.7283 62.0886 59.5675 61.1239 60.4062C60.8486 60.6322 60.5728 60.6965 60.2281 60.6965C54.3025 60.7613 48.4452 61.3745 42.7259 62.9876C41.2788 63.407 39.8318 63.8911 38.4192 64.4722C38.0402 64.6334 37.868 64.8273 37.868 65.2466C37.9024 66.5052 37.868 67.7632 37.9024 68.9896C37.9024 69.5381 37.5234 69.3769 37.2478 69.3769C36.9377 69.3769 36.5932 69.5059 36.5932 68.9575C36.6276 67.6989 36.5932 66.4404 36.6276 65.2145C36.6276 64.8273 36.5243 64.6334 36.1453 64.5043C32.321 63.0198 28.3244 62.0842 24.2589 61.471C20.848 60.9547 17.4026 60.7613 13.9229 60.7292C13.4749 60.7292 13.096 60.6322 12.7514 60.3093C6.30866 54.9205 2.31209 48.241 0.796126 40.303C0.589395 39.2061 0.417137 38.0766 0.382663 36.9472C0.382663 36.8502 0.382663 36.7538 0.279297 36.7212V31.7522C0.451555 31.6874 0.382663 31.5262 0.382663 31.4293C0.486029 30.2677 0.658287 29.0739 0.899493 27.9444C2.38098 20.8777 5.86078 14.8114 11.3733 9.8098C17.127 4.58223 23.9832 1.41977 31.942 0.355064C32.6655 0.258143 33.4579 0.290289 34.147 0.0321461H39.2806V0ZM40.1419 57.5019C42.2435 56.502 44.483 56.2112 46.8258 56.2439C50.3058 56.3082 53.6475 56.9857 56.9553 57.857C57.7821 58.083 58.6089 58.309 59.5047 58.5671V57.8891C59.5047 48.6609 59.5047 39.4643 59.5047 30.2355C59.5047 30.0743 59.4702 29.9126 59.5047 29.7835C59.7116 29.2673 59.4013 29.1382 58.9192 29.0417C56.2314 28.3638 53.5096 27.751 50.7534 27.396C48.1006 27.0731 45.4477 26.8797 42.7603 27.3633C41.1066 27.6541 39.5906 28.2025 38.4192 29.4289C38.1091 29.7835 37.9369 30.1386 37.9369 30.6227C37.9713 32.946 37.9369 35.2692 37.9369 37.5925V38.2379C40.7621 37.8507 42.6225 36.334 43.8629 34.0433C43.9318 34.0107 43.9662 33.9785 43.9318 33.9464C43.9318 33.9464 43.8629 33.9785 43.7939 33.9785C43.4494 34.1076 43.0704 34.3015 42.7259 34.3979C41.8301 34.6239 40.9688 34.5917 40.2452 33.9464C39.5562 33.301 39.4184 32.494 39.7629 31.6874C40.5898 29.7835 42.1057 28.4607 44.1729 27.8801C45.8267 27.396 47.5838 28.6219 47.067 30.4615C47.0326 30.558 47.0326 30.687 47.0326 30.7839C46.5847 33.5913 45.3444 36.0115 43.0704 37.9154C41.7267 39.0449 40.1419 39.7546 38.2125 40.0448C39.7285 40.755 40.4175 41.8844 40.8654 43.2073C41.2788 44.498 41.3822 45.8208 41.1755 47.1442C40.9343 48.7252 40.3831 50.1771 38.9705 51.2096C38.7293 51.3713 38.8671 51.4678 39.0049 51.5969C39.5562 52.1458 39.9007 52.7911 40.1074 53.5008C40.4864 54.8241 40.4175 56.1148 40.0041 57.4055C40.0041 57.4376 40.0041 57.5019 40.0041 57.5346C40.073 57.5346 40.1074 57.5346 40.1419 57.5019ZM30.4605 34.0107C30.426 34.0107 30.3571 33.9785 30.3571 33.9785C30.3226 34.0433 30.3571 34.0433 30.426 34.0755C31.563 36.2049 33.2857 37.6894 35.8352 38.2057C36.2831 38.3026 36.4209 38.2379 36.3865 37.7864C36.352 35.5274 36.3175 33.2363 36.4209 30.9778C36.4554 29.8805 36.0075 29.2351 35.1117 28.7188C34.7672 28.4928 34.3882 28.2995 33.9747 28.1056C32.0453 27.2669 29.9437 27.1052 27.8765 27.1378C23.6043 27.2021 19.4698 28.0735 15.3699 29.1382C14.9909 29.2351 14.8531 29.3963 14.8531 29.7835C14.8531 39.2383 14.8531 48.693 14.8531 58.1473C14.8531 58.5993 14.9909 58.6636 15.4044 58.5345C18.0917 57.7279 20.848 57.0826 23.6387 56.6954C25.8782 56.4051 28.1177 56.276 30.3226 56.5663C31.7352 56.7275 33.1134 57.1147 34.3537 57.7927C34.3882 57.7279 34.4226 57.7279 34.4226 57.6958C34.3882 57.5667 34.3537 57.4376 34.3193 57.3407C33.6991 55.2756 33.8369 53.3395 35.3873 51.6295C35.5596 51.4356 35.4907 51.3713 35.3184 51.2423C34.8016 50.8872 34.3882 50.4352 34.0781 49.9189C33.0445 48.1767 32.8033 46.305 33.1478 44.3689C33.4579 42.6262 34.1814 41.0452 36.0419 40.1096C34.7327 39.9158 33.5957 39.5612 32.5621 38.948C29.1857 36.8502 27.6353 33.7852 27.1874 30.1064C27.0152 28.6219 28.4966 27.4924 30.047 27.8801C32.1142 28.3964 33.5613 29.7192 34.4915 31.5262C34.526 31.6231 34.5604 31.7196 34.5949 31.8486C34.9739 33.3332 34.0781 34.527 32.5277 34.6239C31.8042 34.5917 31.1151 34.3015 30.4605 34.0107ZM60.7797 60.0512C60.8142 60.0838 60.8826 60.116 60.917 60.1481C61.0205 60.019 61.1239 59.8578 61.2618 59.7287C68.9105 51.8876 72.0115 42.6589 70.6331 32.1716C69.6339 24.4916 66.1198 17.8769 60.1247 12.5203C52.2007 5.45357 42.7603 2.54925 31.9075 4.00117C24.2589 5.03374 17.7472 8.35741 12.5447 13.6819C4.99943 21.394 1.96751 30.5258 3.24232 40.884C4.03472 47.4023 6.75654 53.1457 11.2355 58.2121C11.8901 58.9543 12.5792 59.6966 13.4405 60.4062V59.7287C13.4405 49.8868 13.4405 40.0127 13.4405 30.1386C13.4405 29.6871 13.4405 29.3642 14.0607 29.4932C14.1985 29.5254 14.4052 29.5254 14.3708 29.2999C14.3018 28.8479 14.6464 28.8157 14.9564 28.7188C18.8497 27.6863 22.8119 26.8471 26.8773 26.6537C29.1168 26.5568 31.3563 26.6537 33.4924 27.3633C34.526 27.7184 35.4562 28.2347 36.3175 29.0091C36.3175 28.7836 36.3175 28.6545 36.352 28.5255C36.4554 27.9765 36.2142 27.7832 35.6285 27.6863C34.8016 27.5572 34.1125 27.1052 33.4924 26.5568C32.321 25.4921 31.6319 24.1692 31.3218 22.6525C31.2185 22.1362 31.0462 21.9424 30.4605 21.9424C27.7387 21.9746 25.0168 21.9102 22.3295 21.9746C20.2967 22.0072 18.8497 21.168 17.7816 19.6839C16.5069 17.9734 16.0934 16.0052 15.9556 13.94C15.9211 13.3268 16.1279 13.2947 16.6791 13.2947C21.8471 13.3268 27.0152 13.2947 32.2176 13.2947C33.1478 13.2947 33.4579 13.5528 33.4579 14.4563C33.4579 15.9404 33.4579 17.4571 33.4579 18.9416C33.4579 19.1029 33.3546 19.2641 33.5613 19.3931C33.8713 19.1676 34.147 18.9416 34.4571 18.7478C35.0772 18.3606 35.0428 18.3606 35.3873 18.9738C35.7663 19.6513 36.2486 20.2002 37.1789 20.2002C38.0747 20.2002 38.557 19.6513 38.936 19.0059C39.0394 18.8126 39.1427 18.5866 39.2461 18.3606C39.8662 18.5866 40.3486 19.0059 40.8998 19.4258V18.7804C40.8998 17.328 40.8998 15.9082 40.8998 14.4563C40.8998 13.585 41.2099 13.2947 42.1402 13.2947H44.9654C49.2376 13.2947 53.5096 13.2947 57.7821 13.2947C58.0234 13.2947 58.3332 13.1656 58.3332 13.6171C58.2642 15.7149 57.8511 17.7479 56.6106 19.5548C55.4735 21.1358 53.9578 22.0393 51.8215 21.9746C49.0997 21.8781 46.378 21.9746 43.6906 21.9424C43.2771 21.9424 43.1738 22.0393 43.0704 22.4265C42.4503 24.9758 41.3133 27.1378 38.247 27.7506C38.0747 27.7832 38.0402 27.8801 38.0402 28.0092C38.0402 28.3638 38.0402 28.6867 38.0402 29.1708C39.1427 27.9765 40.5209 27.396 42.0024 27.0409C43.5528 26.6858 45.1376 26.5568 46.7225 26.5889C51.167 26.718 55.439 27.6215 59.6771 28.7188C59.9868 28.8157 60.1247 28.9448 60.0902 29.2673C60.0557 29.3963 60.0557 29.6223 60.2971 29.558C60.8826 29.4611 60.8142 29.8162 60.8142 30.1386C60.8142 37.6247 60.8142 45.1112 60.8142 52.5973V60.0512H60.7797ZM16.2657 59.4058C16.5758 59.5675 16.5758 59.5675 16.9203 59.5997C19.5043 59.664 22.0883 59.9221 24.6379 60.3093C28.6 60.9225 32.4588 61.8582 36.2142 63.2458C36.3175 63.2779 36.4209 63.407 36.5243 63.3106C36.6276 63.2136 36.5932 63.0524 36.5243 62.9555C36.4554 62.8264 36.3865 62.7295 36.3175 62.6326C35.6285 61.5036 34.5949 60.6965 33.389 60.0512C31.184 58.8896 28.7378 58.5345 26.2572 58.438C22.8807 58.2764 19.5732 58.7605 16.2657 59.4058ZM37.9024 63.3427C44.5864 60.7292 51.6146 59.7287 58.9192 59.5349C58.5745 59.438 58.3676 59.4058 58.1608 59.3415C56.094 58.9217 53.9922 58.6314 51.856 58.5023C49.1687 58.3411 46.5157 58.438 43.8973 59.1155C41.6234 59.7287 39.5906 60.7292 38.1091 62.5361C38.0058 62.7943 37.7301 62.9876 37.9024 63.3427ZM37.9369 62.0842C39.6596 60.2129 41.8301 59.1798 44.3108 58.5993C48.0317 57.7279 51.7525 57.9539 55.508 58.438C56.5416 58.5671 57.5753 58.7605 58.6779 58.9543C58.5745 58.8896 58.5745 58.8253 58.54 58.8253C54.3364 57.5989 50.0989 56.6311 45.6544 56.7275C43.6217 56.7923 41.6234 57.0826 39.9696 58.2442C38.5915 59.1477 37.5234 60.245 37.9369 62.0842ZM36.5243 61.9551C36.7654 60.9547 36.4554 60.116 35.7663 59.4058C35.215 58.8574 34.5949 58.3733 33.8713 58.0182C32.1487 57.1473 30.2882 56.8892 28.3588 56.8244C25.2236 56.7275 22.1572 57.2764 19.1253 57.9861C17.8506 58.2764 16.6102 58.6314 15.3699 58.9543C15.8178 59.0834 16.2312 58.9543 16.6102 58.8574C20.6413 58.083 24.6723 57.5989 28.7723 58.1473C31.8041 58.5671 34.5604 59.5349 36.5243 61.9551ZM36.5587 41.4646C34.9394 42.7553 34.6293 44.3368 34.6638 46.0468C34.6983 47.5957 35.0773 49.0802 36.5587 50.2097V41.4646ZM37.9024 41.6263V50.048C40.2797 48.7573 40.3486 43.0782 37.9024 41.6263ZM36.5587 52.0488C34.4915 53.3074 34.8016 57.7279 36.5587 58.438V52.0488ZM37.868 52.1131C37.868 54.243 37.868 56.276 37.868 58.3411C37.868 58.3733 37.9024 58.4054 37.9024 58.438C39.5906 57.631 39.8662 53.3717 37.868 52.1131Z" fill="white"/>
<path fill-rule="evenodd" clip-rule="evenodd" d="M206.931 36.8183C206.483 38.2702 206.138 39.7547 205.622 41.2066C205.208 42.3683 204.761 43.5299 204.278 44.6594C204.174 44.9502 203.968 45.0792 203.692 45.2083C200.867 46.4021 197.87 46.9505 194.769 47.0796C190.704 47.2087 186.776 46.7571 183.089 45.0792C179.058 43.2396 175.889 40.5939 174.338 36.5601C171.306 28.6868 174.097 19.9096 183.02 15.4891C185.914 14.0693 189.049 13.4239 192.288 13.2627C195.733 13.0689 199.076 13.3918 202.314 14.5208C203.21 14.8437 204.071 15.2309 204.932 15.6503C205.208 15.7794 205.312 15.9406 205.312 16.2635C205.312 18.6515 205.312 21.0069 205.312 23.395C205.312 23.5562 205.415 23.8465 205.036 23.8143C204.761 23.8143 204.485 23.8786 204.416 23.4593C204.14 22.0395 203.692 20.684 202.969 19.3933C201.211 16.3926 198.559 14.7146 194.907 14.5208C190.807 14.2953 187.12 15.2631 184.123 18.0062C181.711 20.2004 180.264 22.9108 179.644 25.9764C178.92 29.6225 179.024 33.2043 180.643 36.6249C182.641 40.8842 185.914 44.014 190.772 45.4338C193.701 46.273 196.664 46.2082 199.489 44.8532C201.625 43.8207 203.003 42.1101 204.14 40.2067C204.795 39.1094 205.38 38.012 205.932 36.8504C206.242 36.1408 206.242 36.1408 207 36.4311V36.8183H206.931Z" fill="white"/>
<path fill-rule="evenodd" clip-rule="evenodd" d="M128.273 11.7451C129.1 13.7781 129.858 15.7141 130.651 17.6502C133.717 25.3301 136.783 32.9779 139.85 40.6578C140.194 41.4965 140.608 42.3035 141.09 43.1101C142.02 44.5947 143.536 45.4012 145.224 45.5624C146.568 45.6915 147.946 45.1431 149.118 44.3687C150.048 43.7555 150.22 42.755 150.393 41.7873C150.599 40.6256 150.599 39.464 150.599 38.3019C150.633 33.462 150.633 28.6216 150.599 23.7491C150.599 22.1355 150.565 20.5224 150.427 18.9087C150.22 16.5855 148.911 15.2305 146.43 14.9076C145.948 14.8433 145.466 14.8106 144.949 14.7785C144.604 14.7785 144.57 14.6494 144.57 14.3913C144.57 14.1653 144.57 13.9719 144.915 13.9719C147.085 13.9072 149.255 13.8429 151.461 13.7459C152.77 13.7138 154.079 13.6169 155.422 13.6169C159.35 13.5847 163.209 13.8429 166.827 15.4886C169.101 16.5212 170.961 17.9731 171.754 20.3285C172.718 23.1681 171.926 26.9437 168.446 29.267C166.207 30.7837 163.623 31.5581 160.935 32.0096C160.349 32.1065 159.729 32.1387 159.143 32.2677C158.73 32.3647 158.765 32.0744 158.696 31.8805C158.592 31.5902 158.765 31.5259 159.04 31.4612C160.143 31.3 161.176 31.0097 162.21 30.5898C164.69 29.5573 166.276 27.8151 166.654 25.298C167.102 22.3293 166.448 19.651 164.036 17.5211C162.417 16.1014 160.418 15.3269 158.248 14.9723C157.386 14.8106 156.491 14.7463 155.629 14.7463C155.319 14.7463 155.147 14.7785 155.147 15.1657C155.182 23.3619 155.182 31.5581 155.182 39.7543C155.182 40.6578 155.284 41.5934 155.491 42.4969C155.698 43.4652 156.215 44.1427 157.179 44.562C158.592 45.1752 160.074 45.4655 161.59 45.6915C161.969 45.7563 162.072 45.8854 162.037 46.2399C162.037 46.4338 161.969 46.5629 161.728 46.5307C161.624 46.5307 161.486 46.5307 161.383 46.5307C151.426 46.5307 141.469 46.5307 131.512 46.5307C131.305 46.5307 130.96 46.7562 130.858 46.3047C130.789 45.8527 131.064 45.7563 131.443 45.6594C131.925 45.5303 132.442 45.4012 132.89 45.24C134.441 44.659 135.061 43.5942 134.785 42.0454C134.475 40.1415 133.82 38.3345 133.097 36.5597C132.649 35.4623 132.166 34.3655 131.753 33.2682C131.615 32.9457 131.478 32.8166 131.098 32.8166C127.515 32.8166 123.932 32.8166 120.349 32.8166C120.073 32.8166 119.832 32.8166 119.729 33.1391C118.73 35.6883 117.627 38.2054 116.972 40.8838C116.835 41.4322 116.766 41.9806 116.732 42.5291C116.697 43.7233 117.386 44.659 118.627 45.0462C119.798 45.4334 121.004 45.5946 122.21 45.7563C122.623 45.8206 122.623 46.0144 122.623 46.3047C122.623 46.6919 122.313 46.5629 122.141 46.5629C114.251 46.5629 106.361 46.5629 98.471 46.5629C98.2986 46.5629 97.9889 46.7241 97.9545 46.3369C97.92 46.0144 97.9889 45.7884 98.4021 45.7237C99.0226 45.6272 99.6081 45.4334 100.194 45.1752C101.538 44.5942 102.123 43.5942 101.917 42.2388C101.641 40.3996 101.02 38.657 100.331 36.9469C99.8494 35.6883 99.2978 34.4624 98.7813 33.2039C98.6779 32.9457 98.54 32.8488 98.2297 32.8488C94.6122 32.8488 90.9946 32.8488 87.3771 32.8488C87.1358 32.8488 86.9295 32.8166 86.8261 33.1069C85.7579 35.8174 84.5519 38.5279 83.9319 41.3674C83.863 41.6903 83.8285 42.0128 83.7941 42.3678C83.7251 43.7233 84.414 44.659 85.7924 45.0783C86.9295 45.4334 88.135 45.5946 89.3065 45.7563C89.7202 45.8206 89.6857 46.0144 89.6857 46.2726C89.7202 46.6598 89.4099 46.5629 89.2031 46.5629C84.7932 46.5629 80.3834 46.5629 75.9729 46.5629C75.8006 46.5629 75.4908 46.7241 75.4908 46.3369C75.4908 46.0466 75.4564 45.7884 75.904 45.6915C76.6279 45.5624 77.2824 45.2722 77.9713 45.0462C79.3842 44.562 80.3144 43.6585 80.9689 42.4C82.2094 40.0124 83.1396 37.4632 84.1727 34.9787C86.6192 29.1058 88.9963 23.2328 91.2704 17.2956C91.6152 16.4243 92.0628 15.5529 91.6836 14.5851C91.6491 14.4561 91.7525 14.3913 91.8559 14.3591C93.2343 13.7781 94.3714 12.9072 95.4045 11.7777C96.3348 14.101 97.2311 16.3921 98.1613 18.6506C101.193 26.2014 104.19 33.7523 107.257 41.3031C107.635 42.2066 108.084 43.078 108.773 43.8524C109.221 44.3687 109.806 44.7237 110.461 45.0462C110.668 45.1431 110.805 45.1109 111.012 45.0462C112.184 44.5947 113.114 43.9167 113.7 42.852C114.768 41.0128 115.491 39.0442 116.283 37.1081C119.074 30.3643 121.865 23.62 124.449 16.7793C124.725 16.0692 124.966 15.3917 124.69 14.6173C124.621 14.4561 124.725 14.3913 124.862 14.327C126.103 13.7459 127.239 12.9072 128.273 11.7451ZM97.851 30.4934C96.094 26.3305 94.3369 22.2324 92.5454 17.9731C90.8912 22.2324 89.3065 26.3305 87.7218 30.4934H97.851ZM125.482 17.9731C123.863 22.2003 122.244 26.3305 120.659 30.4608H130.789C129.032 26.3305 127.274 22.2324 125.482 17.9731Z" fill="white"/>
<path fill-rule="evenodd" clip-rule="evenodd" d="M43.8281 65.5371C43.8625 65.5045 43.9314 65.4724 43.9314 65.5045C43.9659 65.5693 43.9315 65.6014 43.897 65.6014C43.897 65.6014 43.8625 65.5693 43.8281 65.5371Z" fill="white"/>
<path fill-rule="evenodd" clip-rule="evenodd" d="M30.4259 65.6004C30.3915 65.6004 30.3226 65.5682 30.357 65.5039C30.357 65.5039 30.426 65.5361 30.4604 65.5361C30.4604 65.5682 30.4259 65.5682 30.4259 65.6004Z" fill="white"/>
<path fill-rule="evenodd" clip-rule="evenodd" d="M35.3535 47.8854C35.3535 46.885 35.5947 46.0463 36.146 45.3362C36.7317 44.5939 37.4552 44.5939 38.0409 45.304C39.1434 46.5947 39.1434 49.0149 38.0064 50.3056C37.4552 50.9188 36.8006 50.951 36.2493 50.3378C35.5947 49.5955 35.388 48.7246 35.3535 47.8854Z" fill="white"/>
</svg>