<svg xmlns="http://www.w3.org/2000/svg" width="183" height="69" viewBox="0 0 183 69" fill="none">
<path d="M93.7361 0.440039C92.4424 0.990086 91.5691 2.47523 91.8277 3.68532C91.9572 4.18036 92.4746 4.95045 93.0246 5.39048C95.8386 7.70068 100.334 4.86794 98.6526 1.84266C98.1027 0.852576 96.5501 0 95.3534 0C95.0298 0 94.3183 0.220019 93.7361 0.440039Z" fill="white"/>
<path d="M31.31 11.991L26.8464 23.4319L23.709 23.2669C14.0379 22.6893 8.08642 20.8468 6.5662 17.9315C5.98399 16.8589 5.95165 16.5564 6.30743 15.5663C7.24544 12.9261 10.771 10.0933 16.4961 7.37057C18.178 6.573 19.4718 5.88542 19.4071 5.83043C19.1807 5.6379 11.2562 9.07571 8.798 10.4508C3.39639 13.4761 0.517699 16.5839 0.905838 19.0041C1.52039 22.882 8.47456 25.1646 21.4448 25.7421C23.7737 25.8523 25.7144 26.0173 25.7144 26.0998C25.7144 26.2097 25.0028 28.1348 24.0971 30.3902C23.2238 32.6453 22.4799 34.598 22.4799 34.708C22.4799 34.8179 23.5473 34.9281 24.8734 34.9281H27.2993L29.0136 30.3077L30.7603 25.7147L33.8006 25.5222C35.4824 25.4121 38.7494 25.1097 41.0134 24.8622C43.31 24.6421 45.2507 24.5045 45.38 24.587C45.477 24.6695 46.3828 26.9797 47.3855 29.7025C48.4206 32.4528 49.3261 34.7354 49.4232 34.8179C49.4879 34.9004 50.6524 34.9281 51.9784 34.873L54.4042 34.7905L52.3342 29.3176C51.2021 26.3197 50.2965 23.8444 50.3613 23.7896C50.4258 23.7619 52.5283 23.3494 55.0835 22.9094L59.6766 22.1118V28.6575V35.203H62.1025H64.5283V28.08V20.9843L66.7276 20.4892C67.9246 20.2142 71.0619 19.3891 73.6819 18.6741C76.3018 17.9315 78.5336 17.3264 78.6306 17.3264C78.6954 17.3264 78.7599 21.3418 78.7599 26.2648V35.203H81.3476H83.9353V25.3021V15.4288L86.3286 14.4937C87.6226 13.9712 89.5956 13.0911 90.6952 12.541C91.7951 11.991 92.7654 11.5509 92.8625 11.5509C92.927 11.5509 92.9918 16.8039 92.9918 23.2395V34.9281H95.4177H97.8435V21.6993V8.47066L99.1697 7.20556C100.819 5.58291 101.337 4.78533 101.596 3.2727L101.79 2.06259L100.949 3.52023C99.3638 6.32547 95.0618 9.21323 88.14 12.156C86.1023 13.0361 84.3234 13.7511 84.1939 13.7511C84.0323 13.7511 83.9353 10.8359 83.9353 7.28804V0.824986H81.3476H78.7599V8.25064C78.7599 12.321 78.7277 15.6763 78.6954 15.6763C78.6306 15.6763 77.0781 16.1163 75.2022 16.6664C71.8382 17.629 65.3046 19.2516 64.7869 19.2516C64.6576 19.2516 64.5283 15.0987 64.5283 10.0383V0.824986H62.1025H59.6766V10.5608V20.3242L57.9945 20.5992C53.0457 21.4794 49.6173 21.8919 49.4554 21.6993C49.3584 21.5619 47.5148 16.7764 45.3155 11.0559L41.3693 0.687471L38.5876 0.604966L35.8061 0.522461L31.31 11.991ZM41.4986 13.8061C43.1482 18.234 44.4744 22.0019 44.4744 22.1669C44.4744 22.3319 43.9245 22.552 43.2777 22.6345C41.4341 22.882 32.248 23.4596 31.9247 23.3494C31.6011 23.2395 37.9731 5.77542 38.329 5.77542C38.426 5.77542 39.8815 9.40574 41.4986 13.8061Z" fill="white"/>
<path d="M106.9 17.739V34.928H109.326H111.752L111.785 19.9942C111.785 11.7985 111.882 5.28039 112.011 5.50039C112.108 5.72042 114.631 12.4035 117.574 20.3517L122.944 34.7904H124.852H126.76L132.485 20.0767L138.21 5.36289L138.243 20.1317L138.275 34.928H140.701H143.127V17.739V0.522461L139.342 0.604968L135.558 0.687473L130.383 14.3562C127.537 21.8918 125.111 27.9423 124.981 27.8324C124.884 27.7224 122.523 21.5344 119.806 14.1087L114.825 0.549965H110.879H106.9V17.739Z" fill="white"/>
<path d="M161.725 0.879832C161.207 2.14495 148.302 34.7354 148.302 34.8453C148.302 34.9004 149.434 34.9278 150.792 34.8728L153.251 34.7902L153.833 33.2777C154.156 32.4526 154.868 30.4999 155.418 28.9322L156.453 26.127H164.248H172.075L172.819 28.2722C173.24 29.4273 173.951 31.4075 174.404 32.6451L175.213 34.9278H177.8C179.838 34.9278 180.356 34.8453 180.258 34.5427C180.194 34.3228 177.25 26.5946 173.693 17.3538L167.256 0.549805H164.539C162.695 0.549805 161.822 0.659812 161.725 0.879832ZM167.547 13.6135C169.099 17.9863 170.458 21.7541 170.555 21.9191C170.652 22.1943 169.294 22.2768 164.345 22.2768C160.851 22.2768 158.005 22.1943 158.005 22.0567C158.005 21.8917 158.717 19.9665 162.728 9.10306C163.536 6.93037 164.313 5.28023 164.474 5.39023C164.604 5.52775 165.994 9.21306 167.547 13.6135Z" fill="white"/>
<path d="M20.8632 5.22523C20.6044 5.36273 20.5397 5.50025 20.7015 5.50025C20.8955 5.50025 21.2513 5.36273 21.5101 5.22523C21.7688 5.08772 21.8659 4.9502 21.6718 4.9502C21.5101 4.9502 21.1219 5.08772 20.8632 5.22523Z" fill="white"/>
<path d="M129.865 41.9414C129.639 42.1615 129.38 42.904 129.283 43.5915C129.186 44.3892 128.992 44.8291 128.701 44.8291C128.442 44.8291 128.248 44.9391 128.248 45.1041C128.248 45.2417 128.475 45.3793 128.733 45.3793C129.121 45.3793 129.218 45.9017 129.218 48.4044C129.218 50.9073 129.315 51.4297 129.704 51.4297C130.092 51.4297 130.189 50.9073 130.189 48.4044C130.189 45.5717 130.221 45.3793 130.836 45.3793C131.192 45.3793 131.483 45.2417 131.483 45.1041C131.483 44.9391 131.192 44.8291 130.836 44.8291C130.286 44.8291 130.189 44.6367 130.189 43.5915C130.189 42.5189 130.286 42.3539 130.998 42.1889C131.45 42.1064 131.806 41.914 131.806 41.7764C131.806 41.3638 130.286 41.5014 129.865 41.9414Z" fill="white"/>
<path d="M99.7842 46.6168C99.7842 49.6419 99.9135 51.4296 100.108 51.4296C100.302 51.4296 100.431 49.6419 100.431 46.6168C100.431 43.5914 100.302 41.8037 100.108 41.8037C99.9135 41.8037 99.7842 43.5914 99.7842 46.6168Z" fill="white"/>
<path d="M107.224 46.7816C107.224 49.9994 107.321 51.6772 107.547 51.567C107.741 51.4845 107.87 50.4119 107.87 49.2019C107.87 46.4792 108.42 45.4066 109.876 45.3789C111.105 45.3789 111.428 46.1215 111.428 48.9818C111.428 50.6046 111.558 51.7046 111.752 51.7046C112.334 51.7046 112.172 46.1492 111.558 45.434C110.975 44.7189 109.65 44.6364 108.582 45.269L107.87 45.6815V43.7564C107.87 42.6288 107.741 41.8037 107.547 41.8037C107.353 41.8037 107.224 43.6463 107.224 46.7816Z" fill="white"/>
<path d="M50.2969 42.629C50.2969 42.9316 50.5232 43.1791 50.7821 43.1791C51.0409 43.1791 51.2672 42.9316 51.2672 42.629C51.2672 42.3266 51.0409 42.0791 50.7821 42.0791C50.5232 42.0791 50.2969 42.3266 50.2969 42.629Z" fill="white"/>
<path d="M166.738 42.629C166.738 42.9316 166.965 43.1791 167.223 43.1791C167.482 43.1791 167.709 42.9316 167.709 42.629C167.709 42.3266 167.482 42.0791 167.223 42.0791C166.965 42.0791 166.738 42.3266 166.738 42.629Z" fill="white"/>
<path d="M22.3181 42.6835C21.7682 43.8935 18.9219 51.3192 18.9219 51.4842C18.9219 51.5943 19.1159 51.6218 19.3747 51.5393C19.6335 51.4568 19.9893 50.8518 20.2157 50.1641L20.6362 48.9265L22.9003 49.009L25.1644 49.0915L25.6496 50.2466C25.8759 50.9066 26.2966 51.4293 26.5229 51.4293C26.8463 51.4293 26.4581 50.1092 25.1644 46.8914C23.9677 43.811 23.2561 42.3535 22.9327 42.3535C22.6739 42.3535 22.3828 42.5185 22.3181 42.6835ZM24.6469 48.294C24.5499 48.3765 23.7089 48.404 22.7386 48.3489L20.9596 48.2664L21.93 45.6538L22.9003 43.041L23.8706 45.5987C24.3882 47.0288 24.744 48.239 24.6469 48.294Z" fill="white"/>
<path d="M77.4658 46.864C77.4658 49.4766 77.5951 51.4567 77.7892 51.5669C77.951 51.6494 78.1128 50.7967 78.1773 49.4492L78.2744 47.1664L80.4739 47.0839L82.6409 47.0014V49.2291C82.6409 50.9894 82.738 51.4293 83.1261 51.4293C83.5468 51.4293 83.6113 50.7418 83.6113 46.8914C83.6113 43.041 83.5468 42.3535 83.1261 42.3535C82.738 42.3535 82.6409 42.7661 82.6409 44.4162V46.5063L80.4739 46.4238L78.2744 46.3413L78.1773 44.3337C78.1128 43.2611 77.951 42.3535 77.7892 42.3535C77.5951 42.3535 77.4658 44.1687 77.4658 46.864Z" fill="white"/>
<path d="M118.221 46.864C118.221 50.6043 118.318 51.4019 118.706 51.5393C119.126 51.6768 119.191 51.0442 119.191 47.029C119.191 43.0687 119.126 42.3535 118.706 42.3535C118.285 42.3535 118.221 43.041 118.221 46.864Z" fill="white"/>
<path d="M103.343 44.1418C103.343 44.6369 103.181 44.8293 102.696 44.8293C102.34 44.8293 102.049 44.9392 102.049 45.0768C102.049 45.2144 102.34 45.3794 102.696 45.4619C103.278 45.5993 103.343 45.8468 103.343 48.322C103.343 50.0823 103.472 51.1549 103.731 51.3748C104.313 51.8698 105.607 51.7873 105.607 51.2649C105.607 51.0448 105.445 50.9348 105.283 51.0173C105.089 51.1273 104.734 51.0448 104.475 50.8798C104.119 50.6322 103.99 49.8897 103.99 47.9646C103.99 45.3794 103.99 45.3794 104.798 45.3794C105.251 45.3794 105.607 45.2418 105.607 45.1043C105.607 44.9392 105.251 44.8293 104.798 44.8293C104.151 44.8293 103.99 44.6917 103.99 44.1418C103.99 43.7567 103.86 43.4541 103.666 43.4541C103.504 43.4541 103.343 43.7567 103.343 44.1418Z" fill="white"/>
<path d="M162.857 44.1416C162.857 44.6366 162.695 44.8293 162.21 44.8293C161.855 44.8293 161.563 44.9392 161.563 45.0768C161.563 45.2142 161.855 45.3792 162.21 45.4617C162.792 45.5993 162.857 45.8468 162.857 48.322C162.857 50.0821 162.987 51.1547 163.245 51.3748C163.795 51.8424 165.121 51.7873 165.121 51.2923C165.121 51.0722 164.927 50.9623 164.701 51.0448C163.795 51.3197 163.472 50.4398 163.569 47.9369C163.666 45.6544 163.698 45.5168 164.41 45.4343C165.38 45.2967 165.315 44.8293 164.313 44.8293C163.666 44.8293 163.504 44.6917 163.504 44.1416C163.504 43.7567 163.375 43.4541 163.181 43.4541C163.019 43.4541 162.857 43.7567 162.857 44.1416Z" fill="white"/>
<path d="M28.3018 48.1294C28.3018 50.8796 28.3988 51.4297 28.7869 51.4297C29.1751 51.4297 29.2721 50.9897 29.2721 49.0095C29.2721 46.4518 29.725 45.3792 30.8572 45.3792C31.9568 45.3792 32.1831 45.9568 32.1831 48.7344C32.1831 50.9346 32.2802 51.4297 32.6683 51.4297C33.0565 51.4297 33.1535 50.9621 33.1535 48.872C33.1535 46.7268 33.2505 46.2043 33.7357 45.8466C34.0593 45.5717 34.5445 45.3792 34.8031 45.3792C35.8382 45.3792 36.0645 46.0116 36.0645 48.7344C36.0645 50.9346 36.1616 51.4297 36.5497 51.4297C36.9378 51.4297 37.0349 50.9897 37.0349 49.1195C37.0349 47.8819 36.8733 46.4518 36.6792 45.9568C36.2263 44.8842 35.0297 44.5542 33.7682 45.1866C32.9919 45.5442 32.7979 45.5442 32.4743 45.2142C31.9891 44.7192 30.4043 44.7192 29.7898 45.2416C29.5309 45.4617 29.2398 45.6542 29.1428 45.6542C29.0458 45.6542 28.9487 45.4617 28.9487 45.2416C28.9487 45.0215 28.8194 44.8291 28.6254 44.8291C28.4313 44.8291 28.3018 46.1218 28.3018 48.1294Z" fill="white"/>
<path d="M40.0436 45.2413C38.5235 46.1488 38.297 49.6141 39.6555 50.8241C40.0113 51.1541 40.6583 51.5118 41.0787 51.5943C42.1784 51.8142 43.5046 51.5118 43.5046 51.0168C43.5046 50.7142 43.3428 50.6867 42.6635 50.8792C42.2109 51.0442 41.6932 51.1541 41.5316 51.1541C40.8847 51.1541 39.6232 49.7792 39.6232 49.0915C39.6232 48.4314 39.688 48.404 41.8872 48.404C44.1516 48.404 44.1516 48.404 43.9898 47.7165C43.8927 47.3314 43.7634 46.7264 43.6664 46.3687C43.3105 44.9112 41.4991 44.3611 40.0436 45.2413ZM42.502 45.7363C42.696 45.9562 42.9546 46.5063 43.0517 46.9739L43.2783 47.8538H41.4346C39.882 47.8538 39.6232 47.7713 39.6232 47.3314C39.6232 46.6162 40.8524 45.3786 41.5639 45.3786C41.855 45.3786 42.3079 45.5437 42.502 45.7363Z" fill="white"/>
<path d="M45.8332 48.1294C45.9625 52.1722 46.5124 52.5574 46.7388 48.762C46.9006 46.1492 46.9328 46.0667 47.8062 45.7093C48.2913 45.5168 48.6795 45.2416 48.6795 45.0766C48.6795 44.6917 47.8387 44.7742 47.3857 45.2416C47.1594 45.4617 46.8683 45.6542 46.7065 45.6542C46.5447 45.6542 46.4154 45.4617 46.4154 45.2416C46.4154 45.0218 46.2536 44.8291 46.092 44.8291C45.8655 44.8291 45.7684 45.9842 45.8332 48.1294Z" fill="white"/>
<path d="M50.2969 48.1294C50.2969 50.137 50.4262 51.4297 50.6202 51.4297C50.8143 51.4297 50.9439 50.137 50.9439 48.1294C50.9439 46.1218 50.8143 44.8291 50.6202 44.8291C50.4262 44.8291 50.2969 46.1218 50.2969 48.1294Z" fill="white"/>
<path d="M54.5982 45.1593C53.0456 45.8193 52.4959 49.1196 53.7249 50.5222C54.5012 51.3747 55.8274 51.8147 56.927 51.5948C58.1562 51.3197 57.8974 50.8797 56.5066 50.8797C54.663 50.8797 54.016 50.1371 54.016 48.0744C54.016 46.6444 54.113 46.3418 54.8248 45.8742C55.407 45.4893 55.9244 45.3791 56.7007 45.4893C57.4447 45.5718 57.7358 45.5167 57.6388 45.2966C57.477 44.8567 55.504 44.7742 54.5982 45.1593Z" fill="white"/>
<path d="M59.8057 45.2144C59.0294 45.7094 59.3853 46.0671 60.2586 45.682C61.7141 45.0219 63.2342 45.7094 63.2342 46.9746C63.2342 47.442 63.0401 47.5796 62.2964 47.5796C60.1939 47.5796 58.7061 48.5697 58.7061 49.9449C58.7061 50.605 60.2261 51.705 61.1319 51.705C61.5846 51.705 62.2316 51.4575 62.5875 51.1549C63.1049 50.7149 63.2342 50.6875 63.2342 51.0175C63.2342 51.2374 63.396 51.43 63.5578 51.43C63.7519 51.43 63.8812 50.3298 63.8812 48.6797C63.8812 46.287 63.7842 45.847 63.2342 45.3794C62.4579 44.7193 60.7438 44.6368 59.8057 45.2144ZM63.2342 48.9548C63.2342 49.8073 62.0375 51.1549 61.2612 51.1549C60.582 51.1549 59.6764 50.2749 59.6764 49.6149C59.6764 48.8172 60.8083 48.1298 62.1668 48.1298C63.1372 48.1298 63.2342 48.2123 63.2342 48.9548Z" fill="white"/>
<path d="M66.1455 48.1294C66.1455 50.5772 66.2426 51.4297 66.5661 51.4297C66.8572 51.4297 66.9543 50.7422 66.9543 48.9545C66.9866 46.2868 67.4717 45.3792 68.895 45.3792C70.1239 45.3792 70.3505 45.8743 70.3505 48.872C70.3505 51.2647 70.415 51.6772 70.8357 51.5396C71.806 51.2096 71.3208 45.6267 70.2857 45.0492C69.6065 44.6915 68.1832 44.8017 67.6335 45.2416C67.3747 45.4617 67.0836 45.6542 66.9866 45.6542C66.8895 45.6542 66.7925 45.4617 66.7925 45.2416C66.7925 45.0215 66.6632 44.8291 66.4691 44.8291C66.275 44.8291 66.1455 46.1218 66.1455 48.1294Z" fill="white"/>
<path d="M86.5228 45.5164C85.9406 46.0391 85.7142 46.6166 85.6172 47.8266C85.4554 49.7243 86.1024 51.0444 87.4286 51.4569C88.5283 51.8146 90.4041 51.5394 90.4041 51.0169C90.4041 50.7144 90.2101 50.6869 89.4015 50.9344C88.0753 51.3196 86.7169 50.5219 86.5876 49.2843L86.4905 48.4042H88.6575H90.8248L90.6307 47.1665C90.566 46.4791 90.2101 45.654 89.919 45.379C89.0782 44.5814 87.4608 44.6639 86.5228 45.5164ZM89.0457 45.5989C89.4986 45.8741 90.113 47.4692 89.8219 47.6892C89.7249 47.7717 88.9487 47.8543 88.0753 47.8543C86.6846 47.8543 86.5228 47.7992 86.5228 47.2216C86.5228 45.9015 87.9138 44.9939 89.0457 45.5989Z" fill="white"/>
<path d="M93.4121 45.0219C93.1858 45.0768 92.9917 45.3243 92.9917 45.5444C92.9917 45.847 93.121 45.8744 93.6062 45.6543C95.0295 45.0219 96.5498 45.6269 96.5498 46.8645C96.5498 47.4146 96.3557 47.5245 95.0942 47.6621C93.2181 47.8271 92.3447 48.4872 92.3447 49.6971C92.3447 51.4024 94.2209 52.2274 95.9028 51.2374C96.4527 50.9073 96.7113 50.8799 96.8083 51.0998C96.8731 51.2924 97.0672 51.4298 97.229 51.4298C97.7465 51.4298 97.1965 45.847 96.6468 45.2969C96.1616 44.8569 94.3502 44.6919 93.4121 45.0219ZM96.5498 48.9272C96.5498 50.1097 96.2261 50.6047 95.3206 50.9073C94.7384 51.0998 94.3179 51.0449 93.768 50.7423C92.2155 49.8898 93.3151 48.1295 95.4176 48.1295C96.4527 48.1295 96.5498 48.1846 96.5498 48.9272Z" fill="white"/>
<path d="M121.714 48.1287C121.843 51.9515 122.426 52.6392 122.426 48.9538C122.426 46.836 122.523 46.396 123.072 45.9284C123.914 45.2135 124.851 45.2409 125.466 45.9835C125.854 46.4235 125.984 47.2762 125.984 49.0089C125.984 50.4389 126.113 51.429 126.307 51.429C126.857 51.429 126.728 46.1485 126.113 45.4334C125.531 44.6908 123.881 44.6083 123.008 45.296C122.458 45.7086 122.426 45.7086 122.426 45.296C122.426 45.0209 122.231 44.8284 122.037 44.8284C121.714 44.8284 121.649 45.626 121.714 48.1287Z" fill="white"/>
<path d="M133.617 45.4612C132.711 46.2314 132.323 48.074 132.776 49.4492C133.164 50.7142 133.39 50.9892 134.296 51.4017C135.428 51.8967 136.334 51.7594 137.336 50.9067C138.177 50.1917 138.274 49.9166 138.274 48.404C138.274 46.6439 137.692 45.2962 136.819 44.9938C135.719 44.6361 134.361 44.8287 133.617 45.4612ZM136.819 45.9288C138.145 47.1938 137.627 50.5766 136.01 51.0168C134.522 51.4293 133.423 50.1366 133.423 48.0189C133.423 45.8737 135.428 44.6361 136.819 45.9288Z" fill="white"/>
<path d="M140.216 48.267C140.216 51.1547 140.28 51.6772 140.701 51.5398C141.057 51.4023 141.186 50.7422 141.251 48.7346C141.348 46.1218 141.38 46.0667 142.254 45.7093C142.739 45.5168 143.127 45.2416 143.127 45.0766C143.127 44.6917 142.286 44.7742 141.833 45.2416C141.607 45.4617 141.315 45.6542 141.154 45.6542C140.992 45.6542 140.863 45.4617 140.863 45.2416C140.863 45.0218 140.733 44.8291 140.539 44.8291C140.345 44.8291 140.216 46.1492 140.216 48.267Z" fill="white"/>
<path d="M144.743 48.1294C144.743 50.137 144.873 51.4297 145.067 51.4297C145.261 51.4297 145.39 50.4122 145.39 48.9545C145.39 46.8367 145.487 46.3967 146.037 45.9291C147.654 44.5542 148.625 45.7093 148.625 49.0095C148.625 50.4396 148.754 51.4297 148.948 51.4297C149.142 51.4297 149.272 50.4396 149.272 49.0095C149.272 46.4242 149.724 45.3792 150.856 45.3792C151.956 45.3792 152.312 46.1767 152.441 48.8445C152.538 50.2746 152.7 51.4297 152.862 51.4297C153.024 51.4297 153.153 50.2195 153.153 48.7344C153.153 46.7542 153.024 45.9017 152.635 45.4341C152.053 44.7192 150.533 44.609 149.757 45.2691C149.272 45.6816 149.207 45.6816 148.657 45.2691C147.913 44.6915 146.749 44.7192 145.972 45.2967C145.422 45.7093 145.39 45.7093 145.39 45.2967C145.39 45.0215 145.261 44.8291 145.067 44.8291C144.873 44.8291 144.743 46.1218 144.743 48.1294Z" fill="white"/>
<path d="M156.323 45.0214C155.999 45.0763 155.741 45.2964 155.741 45.5165C155.741 45.8188 155.935 45.8188 156.679 45.5713C158.07 45.1314 159.299 45.6538 159.299 46.699C159.299 47.4416 159.201 47.5241 157.843 47.6617C155.967 47.8267 155.094 48.4867 155.094 49.6967C155.094 51.4019 156.97 52.227 158.652 51.2369C159.201 50.9069 159.46 50.8794 159.557 51.0993C159.622 51.292 159.816 51.4293 160.01 51.4293C160.237 51.4293 160.301 50.4669 160.204 48.7066C160.107 46.5066 159.978 45.8465 159.493 45.4063C158.91 44.8564 157.714 44.7188 156.323 45.0214ZM159.299 48.9267C159.299 50.1092 158.975 50.6043 158.102 50.9069C156.711 51.3468 155.482 50.3568 155.935 49.1742C156.161 48.5692 157.099 48.1841 158.425 48.1567C159.169 48.1291 159.299 48.2392 159.299 48.9267Z" fill="white"/>
<path d="M166.738 48.1294C166.738 50.8796 166.835 51.4297 167.223 51.4297C167.644 51.4297 167.709 50.8796 167.709 48.1294C167.709 45.3792 167.644 44.8291 167.223 44.8291C166.835 44.8291 166.738 45.3792 166.738 48.1294Z" fill="white"/>
<path d="M171.008 45.0211C170.232 45.2686 169.649 46.7263 169.649 48.4039C169.649 49.9165 169.746 50.1916 170.588 50.9065C171.59 51.7593 172.496 51.8966 173.628 51.4016C174.533 50.989 174.76 50.7141 175.148 49.4491C175.601 48.0739 175.213 46.2313 174.307 45.4611C173.596 44.8561 172.075 44.6636 171.008 45.0211ZM173.854 46.1211C174.857 47.1937 174.663 49.889 173.563 50.6316C172.625 51.2917 172.172 51.2917 171.234 50.6316C170.555 50.164 170.458 49.8616 170.458 48.3214C170.458 46.9462 170.588 46.3963 171.073 45.9561C171.914 45.1587 173.013 45.2412 173.854 46.1211Z" fill="white"/>
<path d="M177.089 48.1294C177.089 50.8796 177.186 51.4297 177.574 51.4297C177.962 51.4297 178.059 50.9621 178.059 48.9545C178.059 46.8367 178.156 46.3967 178.706 45.9291C179.062 45.6267 179.612 45.3792 179.935 45.3792C181.067 45.3792 181.294 45.9568 181.294 48.7344C181.294 51.0171 181.358 51.4297 181.811 51.4297C182.264 51.4297 182.296 51.0446 182.199 48.5145C182.102 46.0116 182.005 45.5442 181.488 45.2142C180.647 44.7192 179.224 44.7192 178.706 45.2416C178.48 45.4617 178.189 45.6542 178.027 45.6542C177.865 45.6542 177.736 45.4617 177.736 45.2416C177.736 45.0215 177.606 44.8291 177.412 44.8291C177.218 44.8291 177.089 46.1218 177.089 48.1294Z" fill="white"/>
<path d="M174.178 56.2969C172.366 56.9019 171.558 58.5521 172.399 60.0372C173.854 62.6774 178.382 61.6874 178.382 58.7447C178.382 57.287 175.762 55.7745 174.178 56.2969ZM177.347 57.3696C178.35 58.3596 178.285 59.5421 177.121 60.5322C174.792 62.5124 171.202 60.2573 172.722 57.7546C173.66 56.2144 175.956 56.022 177.347 57.3696Z" fill="white"/>
<path d="M173.887 59.0481C173.919 59.9281 174.016 60.3132 174.081 59.8732C174.242 58.9105 175.213 58.8831 175.795 59.8181C176.022 60.2032 176.28 60.4508 176.345 60.3957C176.442 60.3406 176.28 60.0106 176.054 59.6805C175.73 59.1855 175.73 59.0205 176.054 58.938C176.474 58.8006 176.604 57.4805 176.183 57.4805C176.022 57.4805 175.924 57.7555 175.924 58.0855C175.957 58.5805 175.763 58.7455 175.019 58.8006C174.178 58.8831 174.113 58.828 174.242 58.1954C174.339 57.8105 174.275 57.4805 174.145 57.4805C173.984 57.4805 173.887 58.1954 173.887 59.0481Z" fill="white"/>
<path d="M34.2535 60.7252C33.4447 62.8978 32.6685 64.5756 32.5069 64.4655C32.3774 64.3281 31.6658 62.5678 30.9218 60.5602C29.8222 57.6173 29.4663 56.9299 28.9811 56.9299C28.2049 56.9299 28.1078 57.645 28.2374 62.3753C28.3667 67.4357 28.9489 67.0232 28.9811 61.7978L29.0136 57.6173L30.6632 61.8252C31.5688 64.108 32.4744 66.0056 32.6685 66.0056C32.8303 66.0056 33.7358 64.108 34.6092 61.7978L36.2265 57.6173L36.3235 61.7978C36.4528 67.6832 37.035 67.2983 37.035 61.3578C37.035 56.8474 37.0028 56.6823 36.3883 56.7374C35.8383 56.7648 35.4825 57.3975 34.2535 60.7252Z" fill="white"/>
<path d="M140.442 57.2052C140.345 57.5629 140.442 57.7553 140.733 57.7553C140.992 57.7553 141.186 57.5078 141.186 57.2052C141.186 56.9028 141.056 56.6553 140.895 56.6553C140.733 56.6553 140.539 56.9028 140.442 57.2052Z" fill="white"/>
<path d="M154.771 57.2052C154.771 57.5078 154.997 57.7553 155.256 57.7553C155.514 57.7553 155.741 57.5078 155.741 57.2052C155.741 56.9028 155.514 56.6553 155.256 56.6553C154.997 56.6553 154.771 56.9028 154.771 57.2052Z" fill="white"/>
<path d="M108.517 61.2751C106.771 65.9506 106.771 66.0055 107.191 66.0055C107.353 66.0055 107.709 65.483 107.935 64.8229L108.42 63.6678L110.684 63.5853L112.981 63.5028L113.369 64.548C113.595 65.1255 113.887 65.7031 114.048 65.8405C114.857 66.583 114.566 65.3454 113.013 61.3577C111.655 57.8923 111.17 56.9297 110.717 56.9297C110.296 56.9297 109.811 57.8649 108.517 61.2751ZM111.849 60.4226L112.658 62.7052H110.717C109.1 62.7052 108.809 62.6227 108.97 62.2652C109.067 62.0451 109.488 60.9177 109.876 59.79C110.264 58.6623 110.684 57.8373 110.814 57.9474C110.943 58.0573 111.396 59.185 111.849 60.4226Z" fill="white"/>
<path d="M100.01 57.9479C99.881 58.0304 99.7839 58.4155 99.7839 58.773C99.7839 59.2131 99.5899 59.4056 99.137 59.4056C98.7813 59.4056 98.4902 59.5155 98.4902 59.6805C98.4902 59.8181 98.7813 59.9557 99.137 59.9557C99.7517 59.9557 99.7839 60.1481 99.7839 62.6508C99.7839 64.3835 99.9132 65.456 100.172 65.6761C100.657 66.0886 102.048 66.1161 102.048 65.7312C102.048 65.5662 101.822 65.456 101.563 65.456C100.819 65.456 100.495 64.6036 100.495 62.5683C100.528 60.2857 100.625 59.9557 101.434 59.9557C102.307 59.9557 102.21 59.4607 101.336 59.3505C100.754 59.2956 100.593 59.103 100.625 58.498C100.625 57.7554 100.431 57.5904 100.01 57.9479Z" fill="white"/>
<path d="M151.116 57.9478C150.986 58.0304 150.889 58.4154 150.889 58.7729C150.889 59.158 150.695 59.4055 150.404 59.4055C150.145 59.4055 149.919 59.5155 149.919 59.6805C149.919 59.8181 150.145 59.9557 150.404 59.9557C150.792 59.9557 150.889 60.4231 150.889 62.4583C150.889 65.3735 151.18 66.0061 152.506 66.0061C153.639 66.0061 153.833 65.5385 152.765 65.4011C152.054 65.3186 152.021 65.1811 151.924 62.6233L151.827 59.9557H152.668C153.121 59.9557 153.477 59.8181 153.477 59.6805C153.477 59.5155 153.121 59.4055 152.668 59.4055C151.989 59.4055 151.86 59.2679 151.86 58.5805C151.86 57.7828 151.569 57.5353 151.116 57.9478Z" fill="white"/>
<path d="M40.6901 59.4051C39.4934 59.8176 39.849 60.1751 41.3371 60.0375C42.9219 59.8725 43.6334 60.3401 43.4393 61.3853C43.3748 61.9078 43.116 62.0454 41.8545 62.1553C41.0135 62.2378 40.1079 62.4853 39.8168 62.6778C39.1053 63.2005 39.1375 64.9606 39.8815 65.5381C40.6578 66.1156 42.3397 66.1431 42.8896 65.5655C43.2778 65.1806 43.3423 65.1806 43.7304 65.6206C43.957 65.8956 44.1833 66.0606 44.2481 65.9781C44.4744 65.6757 43.957 59.955 43.6659 59.7075C43.1482 59.2675 41.4986 59.1025 40.6901 59.4051ZM43.5041 63.4754C43.5041 63.888 43.2778 64.5206 42.9867 64.8506C42.3397 65.6206 40.7549 65.6757 40.2697 64.9331C39.4934 63.6404 40.3019 62.7054 42.2426 62.7054C43.4071 62.7054 43.5041 62.7603 43.5041 63.4754Z" fill="white"/>
<path d="M48.6791 59.3232C48.4205 59.4057 47.9353 59.6532 47.6442 59.9007C47.1266 60.2858 47.062 60.2582 47.062 59.8733C47.062 59.5981 46.9325 59.4057 46.7384 59.4057C46.5443 59.4057 46.415 60.6983 46.415 62.7059C46.415 65.4561 46.5121 66.0062 46.9002 66.0062C47.2883 66.0062 47.3854 65.5386 47.3854 63.4485C47.3854 60.5333 47.8058 59.8456 49.5524 60.0106L50.4582 60.0931L50.5553 63.036C50.6198 65.5112 50.7168 66.0062 51.1375 66.0062C51.5901 66.0062 51.6226 65.5937 51.5256 63.0911C51.4286 60.4232 51.3638 60.1482 50.6523 59.6532C49.876 59.1307 49.5201 59.0482 48.6791 59.3232Z" fill="white"/>
<path d="M54.9222 59.4051C53.7253 59.8176 54.0812 60.2026 55.4719 60.0375C56.9599 59.8725 57.7362 60.2576 57.7362 61.2203C57.7362 61.7428 57.5096 61.8803 56.5393 62.0177C54.4045 62.2929 53.693 62.7329 53.596 63.9154C53.5312 64.6031 53.6608 65.1256 54.0489 65.483C54.7281 66.1156 56.507 66.1707 57.1215 65.5655C57.5096 65.1806 57.5744 65.1806 57.9626 65.6206C58.1889 65.8956 58.4155 66.0606 58.48 65.9781C58.7066 65.6757 58.1889 59.955 57.8978 59.7075C57.3803 59.2675 55.7308 59.1025 54.9222 59.4051ZM57.7362 63.4754C57.7362 63.888 57.5096 64.5206 57.2186 64.8506C56.5718 65.6206 54.9867 65.6757 54.5016 64.9331C53.7253 63.6404 54.5341 62.7054 56.4748 62.7054C57.6392 62.7054 57.7362 62.7603 57.7362 63.4754Z" fill="white"/>
<path d="M61.8435 59.4331C59.9676 60.3406 59.838 64.9336 61.6172 65.7312C62.4905 66.1438 63.6224 66.0613 64.4634 65.5662C65.1104 65.1811 65.175 65.1811 65.175 65.6762C65.175 66.6937 64.4312 67.9864 63.6872 68.2065C63.2668 68.3439 62.5228 68.3439 61.8758 68.1788C60.5498 67.8764 60.6468 67.8488 60.6468 68.3164C60.6468 68.5914 61.1643 68.784 62.1024 68.9214C63.7842 69.114 65.0134 68.619 65.4986 67.4913C65.919 66.5563 65.919 59.4056 65.4986 59.4056C65.3368 59.4056 65.175 59.5981 65.175 59.8456C65.175 60.2033 65.0134 60.1756 64.3342 59.7082C63.3638 59.0756 62.7168 58.9931 61.8435 59.4331ZM64.7546 61.0283C65.6927 62.926 64.7223 65.4561 63.0402 65.4561C61.8758 65.4561 61.2936 64.466 61.2936 62.5409C61.2936 61.0283 61.3906 60.7532 62.1024 60.2858C63.202 59.5432 64.1723 59.8182 64.7546 61.0283Z" fill="white"/>
<path d="M68.8948 59.7352C67.2775 60.9179 67.2127 64.4658 68.733 65.5107C69.6385 66.1159 72.291 66.1984 72.291 65.6209C72.291 65.3183 71.9674 65.2632 71.0618 65.3734C69.9622 65.5107 69.7034 65.4008 69.0889 64.7407C68.7007 64.3282 68.4096 63.7232 68.4742 63.4206C68.5712 62.9256 68.83 62.843 70.6737 62.7605C71.8058 62.7055 72.8085 62.623 72.8732 62.5955C73.1966 62.293 72.4203 60.3128 71.7733 59.7629C70.8355 58.9652 69.9622 58.9652 68.8948 59.7352ZM71.5792 60.6428C72.291 61.9629 72.1292 62.1556 70.1885 62.1556C68.2478 62.1556 68.1508 62.018 68.8948 60.7804C69.574 59.6803 71.0296 59.6253 71.5792 60.6428Z" fill="white"/>
<path d="M76.2691 59.5424C75.8162 59.8174 75.4928 59.8724 75.3632 59.6798C74.781 58.8824 74.5547 59.7074 74.5547 62.7051C74.5547 65.4553 74.6517 66.0054 75.0399 66.0054C75.428 66.0054 75.5251 65.5378 75.5251 63.4477C75.5251 61.2474 75.6221 60.78 76.1395 60.3949C76.4954 60.1199 77.1099 59.9549 77.5305 60.0098C78.242 60.0923 78.2743 60.1748 78.3713 63.0351C78.4361 65.4278 78.5654 66.0054 78.9213 66.0054C79.3094 66.0054 79.4064 65.5103 79.4064 63.4477C79.4064 60.5048 79.7298 59.8448 81.1853 60.0098L82.1557 60.0923L82.2527 63.0351C82.3175 65.4278 82.4468 66.0054 82.8026 66.0054C83.1908 66.0054 83.2878 65.5103 83.2878 63.5576C83.2878 60.6975 82.9645 59.7899 81.8323 59.3497C81.1531 59.0748 80.8619 59.1299 80.1179 59.5973C79.2446 60.1474 79.2124 60.1474 78.4684 59.6523C77.5628 59.0197 77.1746 58.9923 76.2691 59.5424Z" fill="white"/>
<path d="M86.3608 59.7359C84.7112 60.9735 84.6464 64.4388 86.2313 65.5388C87.04 66.0889 89.4659 66.0889 89.66 65.5388C89.757 65.3189 89.4011 65.2638 88.5278 65.3738C87.4282 65.5114 87.1693 65.4288 86.5549 64.7414C86.1667 64.3288 85.8756 63.7236 85.9402 63.4213C86.0372 62.8986 86.296 62.8437 88.269 62.7612C90.3715 62.6787 90.4685 62.651 90.2745 62.0735C90.1774 61.7435 90.0804 61.2484 90.0804 60.9735C90.0804 60.3134 88.6571 59.1309 87.8486 59.1309C87.4927 59.1309 86.8134 59.4058 86.3608 59.7359ZM88.916 60.5609C89.9186 61.7711 89.6275 62.156 87.6545 62.156C85.7139 62.156 85.6168 62.0186 86.3608 60.781C86.9753 59.7633 88.2044 59.6808 88.916 60.5609Z" fill="white"/>
<path d="M93.8004 59.5708C93.1859 59.8457 92.7978 59.8733 92.733 59.7083C92.6684 59.5433 92.4744 59.4057 92.3126 59.4057C92.1508 59.4057 92.0215 60.8909 92.0215 62.706C92.0215 65.4562 92.1185 66.0063 92.5067 66.0063C92.8948 66.0063 92.9918 65.5387 92.9918 63.4486C92.9918 60.5334 93.4122 59.8457 95.1588 60.0107L96.0647 60.0932L96.1617 63.0361C96.2262 65.5113 96.3233 66.0063 96.7439 66.0063C97.1966 66.0063 97.2291 65.5938 97.1321 63.0911C97.035 60.4233 96.9702 60.1483 96.2588 59.6533C95.3529 59.0207 95.0618 59.0207 93.8004 59.5708Z" fill="white"/>
<path d="M117.089 59.4603C115.665 60.148 115.504 61.5781 116.797 62.3481C119.191 63.7784 119.353 63.9708 118.932 64.7684C118.576 65.4009 118.382 65.4834 117.315 65.4009C116.668 65.3734 116.053 65.4285 115.956 65.5935C115.859 65.7586 116.442 65.8959 117.283 65.951C119.191 66.0609 119.903 65.5384 119.773 64.1358C119.708 63.3108 119.45 63.0082 118.285 62.3481C117.509 61.9081 116.797 61.358 116.7 61.1656C116.409 60.5329 117.25 59.9554 118.415 59.9554C119.547 59.9554 119.903 59.5979 118.997 59.2953C118.285 59.0755 117.832 59.1029 117.089 59.4603Z" fill="white"/>
<path d="M122.49 59.4605C121.746 59.7905 121.326 60.643 121.52 61.4955C121.552 61.7431 122.264 62.3757 123.072 62.8433C124.625 63.7783 124.981 64.4109 124.334 65.0984C124.043 65.401 123.558 65.4835 122.684 65.3734C121.779 65.2634 121.455 65.3185 121.455 65.6209C121.455 65.8961 121.876 66.006 122.846 66.006C124.496 66.006 124.884 65.8135 125.304 64.8235C125.757 63.8057 125.369 63.1733 123.719 62.2932C122.167 61.4681 121.973 61.2206 122.425 60.5054C122.684 60.1205 123.105 59.9555 123.881 59.9555C125.045 59.9555 125.401 59.5979 124.496 59.2955C123.816 59.0754 123.363 59.1028 122.49 59.4605Z" fill="white"/>
<path d="M128.571 59.4876C127.472 59.955 126.954 60.9451 126.954 62.6503C126.954 65.1256 128.021 66.1982 130.35 65.9506C133.003 65.7031 133.649 60.6428 131.159 59.5425C130.027 59.0475 129.606 59.0475 128.571 59.4876ZM131.288 60.5603C132.065 61.4953 131.968 64.218 131.159 64.9055C130.318 65.6206 129.154 65.5932 128.377 64.8781C127.536 64.0804 127.536 61.3302 128.377 60.5326C129.186 59.7626 130.641 59.79 131.288 60.5603Z" fill="white"/>
<path d="M136.334 59.323C135.364 59.6256 134.717 60.3405 134.361 61.4131C133.908 62.8433 134.199 64.1358 135.234 65.181C135.946 65.8685 136.302 66.006 137.499 66.006C138.566 66.006 138.922 65.8961 138.922 65.5935C138.922 65.2909 138.695 65.2084 138.145 65.346C136.981 65.5935 136.075 65.236 135.525 64.3559C134.814 63.2008 134.911 61.5506 135.719 60.6431C136.302 60.0381 136.625 59.928 137.66 60.0105C139.051 60.1206 139.439 59.5979 138.21 59.2955C137.337 59.1029 137.013 59.1029 136.334 59.323Z" fill="white"/>
<path d="M144.679 59.4601C144.161 59.5974 143.773 59.9 143.773 60.1201C143.773 60.4225 143.903 60.4501 144.388 60.23C145.552 59.7076 146.975 59.9 147.396 60.6152C147.946 61.6877 147.525 62.1552 146.038 62.1552C143.644 62.1552 142.253 64.163 143.773 65.4555C144.55 66.1155 146.264 66.1706 147.072 65.538C147.622 65.1254 147.655 65.1254 147.655 65.538C147.655 65.8131 147.816 66.0056 147.978 66.0056C148.172 66.0056 148.302 64.9055 148.302 63.2554C148.302 60.67 148.237 60.4225 147.493 59.8175C146.652 59.0749 146.07 59.0199 144.679 59.4601ZM147.558 63.7228C147.331 64.8505 146.62 65.4555 145.552 65.4555C144.647 65.4555 144.097 64.933 144.097 64.0805C144.097 63.0627 144.679 62.7053 146.296 62.7053H147.752L147.558 63.7228Z" fill="white"/>
<path d="M159.364 59.4052C157.585 60.0376 157.1 63.9154 158.652 65.3181C159.461 66.0606 161.078 66.2533 162.21 65.7306C162.922 65.4006 163.504 64.053 163.504 62.6504C163.504 60.0376 161.692 58.6075 159.364 59.4052ZM162.048 60.5052C162.469 60.8903 162.63 61.4953 162.63 62.5404C162.63 64.4655 161.919 65.4557 160.593 65.4557C159.267 65.4557 158.652 64.5755 158.652 62.7055C158.652 60.8627 159.267 59.9551 160.56 59.9551C161.045 59.9551 161.725 60.2026 162.048 60.5052Z" fill="white"/>
<path d="M166.964 59.6799C166.253 60.1749 166.091 60.2026 166.091 59.8449C166.091 59.5974 165.962 59.4049 165.768 59.4049C165.574 59.4049 165.444 60.6976 165.444 62.7052C165.444 64.7128 165.574 66.0055 165.768 66.0055C165.962 66.0055 166.091 65.0705 166.091 63.7228C166.091 61.0825 166.544 60.1201 167.805 60.0099C169.39 59.8449 169.649 60.2851 169.649 63.2828C169.649 64.9055 169.778 66.0055 169.972 66.0055C170.458 66.0055 170.393 60.4501 169.908 59.8726C169.196 59.13 167.935 59.0198 166.964 59.6799Z" fill="white"/>
<path d="M140.539 62.7056C140.539 64.7132 140.668 66.0058 140.862 66.0058C141.056 66.0058 141.186 64.7132 141.186 62.7056C141.186 60.6979 141.056 59.4053 140.862 59.4053C140.668 59.4053 140.539 60.6979 140.539 62.7056Z" fill="white"/>
<path d="M155.094 62.7056C155.094 64.7132 155.223 66.0058 155.417 66.0058C155.611 66.0058 155.741 64.7132 155.741 62.7056C155.741 60.6979 155.611 59.4053 155.417 59.4053C155.223 59.4053 155.094 60.6979 155.094 62.7056Z" fill="white"/>
</svg>