<svg xmlns="http://www.w3.org/2000/svg" width="149" height="70" viewBox="0 0 149 70" fill="none">
<path d="M67.75 46.8674C68.2662 46.6033 68.8857 46.486 69.5051 46.486C69.9869 46.486 70.4687 46.574 70.8817 46.75C71.329 46.9261 71.7076 47.1901 72.0173 47.4835L73.1529 46.5153C72.7056 46.0459 72.1549 45.6938 71.5355 45.4591C70.7784 45.1951 69.9869 45.0777 69.161 45.1071C68.3351 45.1364 67.5436 45.3418 66.8553 45.6645C66.0982 46.0459 65.4788 46.574 65.0314 47.2488C64.584 47.9529 64.3775 48.7157 64.3775 49.5079C64.3775 50.3 64.584 51.0628 65.0314 51.7669C65.4443 52.4124 66.0638 52.9698 66.8209 53.3512C67.6124 53.7326 68.5071 53.938 69.4019 53.9086C70.1246 53.9086 70.8472 53.7913 71.5355 53.5566C72.1549 53.3219 72.74 52.9405 73.1529 52.5004L72.0173 51.5322C71.7076 51.8549 71.329 52.119 70.8817 52.295C70.4343 52.471 69.9525 52.5591 69.4707 52.5591C68.8513 52.5591 68.2662 52.4417 67.7156 52.1777C67.1994 51.9136 66.7865 51.5616 66.5112 51.1215C66.2358 50.6521 66.0638 50.0946 66.0638 49.5665C66.0638 49.0384 66.2014 48.5103 66.5112 48.0116C66.8209 47.5128 67.2338 47.1314 67.75 46.8674ZM65.995 36.9509H70.8128V40.6183H72.5335V32.0514H70.8128V35.572H65.995V32.0514H64.2743V40.6183H65.995V36.9509ZM74.6671 40.6183H76.3878V32.0514H74.6671V40.6183ZM83.7523 32.4328C83.0984 32.1687 82.3757 32.0514 81.653 32.0807H78.5558V40.6183H80.2765V38.1538H81.653C82.3757 38.1538 83.0984 38.0365 83.7523 37.8018C84.3373 37.567 84.8191 37.215 85.1288 36.7456C85.4385 36.2468 85.6106 35.6894 85.6106 35.1319C85.6106 34.5745 85.4385 34.0171 85.1288 33.5183C84.8191 33.0196 84.3373 32.6675 83.7523 32.4328ZM83.2705 36.3642C82.8919 36.6576 82.3069 36.8042 81.5498 36.8042H80.2765V33.401H81.5498C82.3069 33.401 82.8919 33.5477 83.2705 33.841C83.649 34.1344 83.8555 34.5452 83.8555 35.1026C83.8555 35.66 83.6834 36.0708 83.2705 36.3642ZM100.684 32.0807L96.0378 40.6183H97.9994L99.0318 38.6526H104.194L105.226 40.6183H107.222L102.576 32.0514H100.684V32.0807ZM99.6856 37.391L101.613 33.665L103.54 37.391H99.6856ZM82.2037 45.6645C81.4121 45.2831 80.5174 45.1071 79.5882 45.1071C78.6591 45.1071 77.7987 45.3124 76.9728 45.6645C76.2157 46.0459 75.5619 46.574 75.1489 47.2488C74.7015 47.9529 74.4951 48.7157 74.4951 49.5079C74.4951 50.3 74.7359 51.0628 75.1489 51.7669C75.5619 52.4124 76.2157 52.9698 76.9728 53.3512C77.7643 53.7326 78.6591 53.9086 79.5882 53.9086C80.5174 53.9086 81.3777 53.7033 82.2037 53.3512C82.9607 52.9698 83.5802 52.4417 84.0275 51.7669C84.4749 51.0628 84.6814 50.3 84.6814 49.5079C84.6814 48.7157 84.4405 47.9529 84.0275 47.2488C83.5802 46.574 82.9607 46.0459 82.2037 45.6645ZM82.479 51.0335C82.2037 51.4735 81.7907 51.8549 81.3089 52.119C80.7927 52.383 80.2077 52.5004 79.6227 52.5004C79.0376 52.5004 78.4526 52.3537 77.9364 52.119C77.4202 51.8549 77.0072 51.5029 76.7663 51.0335C76.491 50.564 76.319 50.0359 76.319 49.4785C76.319 48.9211 76.4566 48.4223 76.7663 47.9236C77.0416 47.4835 77.4546 47.1021 77.9364 46.838C78.4526 46.574 79.0376 46.4566 79.6227 46.4566C80.2077 46.4566 80.7927 46.6033 81.3089 46.838C81.8251 47.1021 82.2381 47.4541 82.479 47.9236C82.7543 48.393 82.9263 48.9211 82.9263 49.4785C82.9263 50.0359 82.7543 50.564 82.479 51.0335ZM140.982 45.2244V46.574H144.113V53.7913H145.868V46.574H149V45.2244H140.982ZM138.194 51.0041L132.998 45.2244H131.552V53.7913H133.308V48.0116L138.504 53.7913H139.949V45.2244H138.194V51.0041ZM94.7645 45.2244L91.8394 49.7719L88.8454 45.2244H86.6774V53.7913H88.5357V47.8649L91.805 52.7938L95.1431 47.7769V53.7619H97.0014V45.1951H94.7645V45.2244ZM104.263 45.5765C103.609 45.3124 102.852 45.1951 102.129 45.2244H98.9974V53.7913H100.752V51.3268H102.129C102.852 51.3268 103.609 51.2095 104.263 50.9748C104.848 50.7401 105.329 50.388 105.674 49.9186C105.983 49.4198 106.155 48.8624 106.155 48.305C106.155 47.7475 105.983 47.1901 105.674 46.6914C105.329 46.1926 104.848 45.8112 104.263 45.5765ZM103.781 49.5372C103.402 49.8306 102.817 49.9773 102.026 49.9773H100.718V46.574H102.026C102.783 46.574 103.368 46.7207 103.781 47.0141C104.159 47.3075 104.366 47.7182 104.366 48.2756C104.4 48.8037 104.194 49.2438 103.781 49.5372ZM92.7341 38.6526L93.7665 40.6183H95.7625L91.1167 32.0514H89.224L84.6126 40.6183H86.5741L87.6065 38.6526H92.7341ZM90.1875 33.665L92.1147 37.391H88.2604L90.1875 33.665ZM109.528 45.2244H107.773V53.7913H114.449V52.4417H109.528V45.2244ZM115.894 53.7619H117.649V45.1951H115.894V53.7619ZM45.3469 63.4143C45.3813 65.468 45.4158 66.9643 45.4502 67.6978C45.4846 67.7858 45.4846 67.9032 45.4502 67.9912C45.4502 68.1085 45.4502 68.1965 45.4502 68.1965C45.4502 68.6073 45.519 69.018 45.6567 69.3994C45.7943 69.018 45.8631 68.6073 45.8631 68.1965C45.8631 68.0498 45.932 65.9081 46.0352 62.4755C46.0008 62.5048 45.9664 62.5342 45.9664 62.5635C45.7255 62.8276 45.519 63.121 45.3469 63.4143ZM38.1889 20.58C38.7396 20.0812 39.2558 19.4945 39.6343 18.8784C39.359 19.4065 38.2922 21.4015 39.3246 21.5775C40.4602 21.7535 41.7335 21.4601 44.0392 18.9664C43.9704 15.7685 43.9016 12.9813 43.8672 10.8689H42.6283C42.5594 10.8689 42.525 10.8689 42.4562 10.8689C41.7679 10.8689 40.6323 10.8102 39.8752 9.84207C39.0493 8.78588 39.0149 7.70036 38.9805 6.90821C38.946 5.76401 38.6019 3.68097 36.9157 2.50743C35.7456 1.71529 32.5796 1.09917 29.6544 2.09669C28.6909 2.41941 26.7637 3.27023 24.871 4.06237C23.1503 4.79584 20.9479 5.70533 20.2595 5.70533C21.3952 5.26525 22.9094 4.61981 24.5613 3.82767C26.454 2.94751 28.45 2.00867 29.448 1.65661C31.4439 0.981824 35.2638 0.776448 37.2254 2.12603C39.0837 3.41692 39.4622 5.64665 39.4967 6.84954C39.5311 7.64168 39.5655 8.60985 40.2882 9.57803C40.942 10.3995 41.9744 10.3995 42.5939 10.3995H42.7315H43.8327C43.8327 10.1355 43.8327 9.90075 43.8327 9.6367C42.7315 9.69538 41.1485 9.75406 40.4602 8.4925C39.6343 6.9669 40.5291 3.06486 37.776 1.4219C35.0229 -0.221058 30.618 0.189678 26.6949 2.12603C22.8062 4.03304 17.6441 6.52682 11.2777 8.69787C4.91119 10.8689 0.953654 11.7491 0.19656 11.8371C-0.526119 11.9545 0.781588 12.3652 3.50024 12.4239C6.2189 12.4826 8.49018 12.3065 8.49018 12.3065L28.45 4.56113C28.45 4.56113 11.2433 11.8664 9.79789 12.6586C8.35253 13.4507 7.18247 13.7148 7.28571 14.4482C7.38896 15.1817 8.49018 15.0937 11.5186 15.035C14.5469 14.9763 15.2008 14.7416 16.2332 14.4776C17.2656 14.2135 28.45 9.81274 28.45 9.81274C28.45 9.81274 16.4741 14.8883 14.7534 16.0618C13.0327 17.2354 14.8911 17.6168 16.0611 17.6461C17.2656 17.6755 20.4661 17.5288 22.2556 16.766C24.0451 16.0032 29.62 12.952 29.62 12.952C29.62 12.952 24.1139 16.3259 23.0471 17.0887C22.1867 17.7048 21.7394 18.2329 21.9458 18.8784C22.2556 19.6998 23.9074 19.6118 26.1099 18.937C26.1099 18.937 28.3811 18.2622 29.2415 17.6168C30.1018 16.942 32.5107 15.123 32.5107 15.123C32.5107 15.123 29.6544 17.6461 28.9318 18.7317C28.2435 19.8172 28.1058 20.0812 28.45 20.6974C28.9318 21.5775 32.5796 20.668 33.612 19.7292C34.3691 18.9957 35.0917 18.2329 35.7456 17.4114C35.7456 17.4114 34.6444 18.937 34.4035 19.8172C34.1626 20.6974 33.8873 21.4015 34.8853 21.4895C35.9865 21.6362 37.0189 21.6655 38.1889 20.58ZM45.0028 40.5596C45.106 40.5009 45.2093 40.4422 45.3125 40.3836C45.519 40.2662 45.6911 40.1782 45.8287 40.0608C46.104 39.9141 46.3793 39.7381 46.6546 39.5914C46.6891 37.9191 46.7579 36.2175 46.7923 34.5452C46.2417 34.3398 45.6567 34.1344 45.0372 33.9291C45.0028 33.9291 44.9684 33.8997 44.934 33.8997C44.8651 33.8704 44.8307 33.8704 44.7619 33.841C44.3489 33.7237 43.9704 33.577 43.523 33.4596C43.0068 33.2836 42.4906 33.1369 41.9744 32.9609C38.5331 34.5158 37.8448 35.2493 37.8448 36.6869C37.8448 38.7112 39.8752 39.6207 43.3854 41.5278C43.936 41.1757 44.4866 40.853 45.0028 40.5596ZM40.7699 36.9509C40.7699 36.9509 40.5291 35.66 44.4178 34.1638C44.521 34.1344 44.6242 34.0758 44.7275 34.0464C44.7619 36.0708 44.7963 38.0951 44.8651 40.1195C42.938 39.0046 40.7699 37.9484 40.7699 36.9509ZM46.6546 61.8594C46.4826 62.0354 46.3105 62.2115 46.1384 62.3582C47.1364 63.5024 47.0676 64.6172 46.517 66.0548C47.0332 65.5561 48.0656 64.2945 47.2052 62.6515C47.0332 62.3875 46.8611 62.1234 46.6546 61.8594ZM45.0716 49.8306C45.4502 50.1533 45.8975 50.5347 46.3449 50.9161C46.6202 51.1508 46.8955 51.3855 47.2052 51.6496C47.2397 51.6789 47.3085 51.7082 47.3773 51.7669C49.7174 50.0359 51.8511 48.393 51.8511 46.3393C51.8511 44.7257 50.0272 43.2587 48.2032 42.0852C48.0312 42.1732 47.8591 42.2612 47.687 42.3786C47.2741 42.6133 46.8955 42.8186 46.5514 43.024C46.5514 43.024 46.517 43.024 46.517 43.0534C46.4482 43.112 46.3449 43.1414 46.2761 43.2001C45.7943 43.4934 45.3469 43.7575 44.934 44.0215C45.0028 45.9872 45.0372 47.9529 45.0716 49.8306ZM46.5514 43.3467C48.8227 44.755 49.7174 45.6645 49.7174 46.662C49.7174 47.6889 48.4441 48.8917 46.3793 50.6521C46.4137 48.305 46.4826 45.8699 46.5514 43.3467ZM59.1123 15.1524C59.1123 15.1524 61.5212 16.9714 62.3816 17.6461C63.2419 18.3209 65.5132 18.9664 65.5132 18.9664C67.7156 19.6412 69.3675 19.7292 69.6772 18.9077C69.9181 18.2622 69.4363 17.7048 68.576 17.118C67.5091 16.3552 62.003 12.9813 62.003 12.9813C62.003 12.9813 67.578 16.0325 69.3675 16.7953C71.157 17.5581 74.3574 17.7048 75.5619 17.6755C76.7663 17.6461 78.5902 17.2647 76.8696 16.0912C75.1489 14.9177 63.1731 9.84207 63.1731 9.84207C63.1731 9.84207 74.323 14.2722 75.3898 14.5069C76.4222 14.771 77.0761 14.9763 80.1044 15.0643C83.1328 15.123 84.1996 15.211 84.3373 14.4776C84.4749 13.7734 83.2705 13.5094 81.8251 12.6879C80.3797 11.8958 63.1731 4.59047 63.1731 4.59047L83.1328 12.3359C83.1328 12.3359 85.4041 12.5119 88.1227 12.4532C90.8414 12.3945 92.1491 11.9838 91.4264 11.8664C90.7037 11.7491 86.7118 10.8983 80.3453 8.72721C73.9789 6.55615 68.8169 4.09171 64.9281 2.15537C61.0394 0.248356 56.6001 -0.191724 53.847 1.45124C51.094 3.0942 51.9887 6.9669 51.1628 8.52184C50.4745 9.78339 48.8915 9.72472 47.7903 9.66604C47.7903 9.90075 47.7903 10.1648 47.7559 10.4288H48.8915H49.0292C49.6486 10.4288 50.681 10.4288 51.3349 9.60737C52.0575 8.66854 52.0919 7.67102 52.1264 6.87888C52.1608 5.676 52.5393 3.44626 54.3977 2.15537C56.3592 0.805793 60.1791 1.01116 62.1751 1.68595C63.1731 2.00867 65.169 2.94751 67.0618 3.857C68.7136 4.64915 70.2278 5.29459 71.3634 5.73467C70.6408 5.73467 68.4727 4.82518 66.7521 4.09171C64.8937 3.27023 62.9666 2.44875 61.9686 2.12603C59.0435 1.12852 55.8774 1.74462 54.7074 2.53676C52.9867 3.71031 52.677 5.79335 52.6426 6.93755C52.6082 7.7297 52.5737 8.84456 51.7478 9.87141C51.0251 10.8396 49.8895 10.8983 49.1668 10.8983C49.098 10.8983 49.0636 10.8983 48.9948 10.8983H47.7559C47.687 13.0106 47.6182 15.7685 47.5494 18.9077C49.8895 21.4601 51.2316 21.7829 52.3329 21.5775C53.3652 21.4015 52.3329 19.4065 52.0231 18.8784C52.4361 19.4945 52.9179 20.0519 53.4685 20.58C54.6041 21.6655 55.6709 21.6362 56.7034 21.5188C57.7357 21.4015 57.426 20.7267 57.1851 19.8465C56.9442 18.9664 55.843 17.4408 55.843 17.4408C56.4969 18.2329 57.2195 19.0251 57.9766 19.7585C59.009 20.6974 62.6569 21.6362 63.1386 20.7267C63.4484 20.1399 63.3451 19.8465 62.6569 18.761C62.003 17.6755 59.1123 15.1524 59.1123 15.1524ZM45.8631 6.17475C46.4137 6.17475 46.9644 6.02806 47.4117 5.76401C47.8591 5.49996 48.2376 5.11856 48.4441 4.70782C48.6506 4.26774 48.7194 3.79832 48.6162 3.32891C48.513 2.85949 48.2377 2.44875 47.8591 2.09669C47.4806 1.77396 46.9644 1.53925 46.4137 1.45124C45.8631 1.36322 45.3125 1.39256 44.7963 1.59793C44.2801 1.77396 43.8327 2.09669 43.5574 2.47809C43.2477 2.85949 43.0756 3.32891 43.0756 3.79832C43.0756 4.12105 43.1445 4.41444 43.2821 4.70782C43.4198 5.0012 43.6263 5.26525 43.9016 5.47063C44.1769 5.70533 44.4522 5.88136 44.7963 5.99872C45.106 6.11607 45.4846 6.17475 45.8631 6.17475ZM55.0171 24.0126C55.0171 24.0126 54.9483 22.3697 51.8166 22.1936C48.6162 22.0176 48.4786 23.1911 48.5474 23.6312C48.7883 23.6312 48.9948 23.6899 48.9948 23.7486C48.9948 23.8072 48.8227 23.8659 48.6162 23.8659C48.7883 24.306 49.2701 24.8341 50.6466 25.4209C51.7822 25.8903 52.3329 25.8609 52.9867 25.7729C52.9867 25.7729 53.7438 26.1543 53.7438 26.7704C53.7438 27.3572 52.5393 28.5014 46.8955 30.9072C47.2397 17.9395 47.5494 6.55615 47.5494 6.55615H47.8935C48.0312 6.55615 48.1688 6.49747 48.2721 6.40946C48.3753 6.32144 48.4441 6.20408 48.4441 6.08674V5.94004C48.4441 5.88136 48.4441 5.82269 48.4097 5.76401C48.3753 5.70533 48.3409 5.64666 48.2721 5.61732C47.9623 5.9107 47.6182 6.14541 47.2052 6.32144C46.7923 6.49747 46.3449 6.55615 45.8975 6.55615C45.4502 6.55615 45.0028 6.46814 44.5898 6.32144C44.1769 6.17475 43.7983 5.9107 43.523 5.61732C43.4542 5.676 43.4198 5.70533 43.3854 5.76401C43.351 5.82269 43.351 5.88136 43.351 5.94004V6.08674C43.351 6.20408 43.4198 6.32144 43.523 6.40946C43.6263 6.49747 43.7639 6.55615 43.9016 6.55615H44.2457C44.2457 6.55615 44.4866 17.6168 44.7275 30.3497C45.2093 30.5551 45.6911 30.7605 46.2417 30.9952C46.3105 31.0245 46.4137 31.0539 46.4826 31.0832C47.7559 31.6113 48.8227 32.0514 49.7174 32.4621C52.7458 31.4646 55.7054 30.3204 56.6001 28.7068C58.1831 25.7142 55.0171 24.0126 55.0171 24.0126ZM50.8187 23.3378C50.4745 23.3378 50.1992 23.1911 50.1992 23.0151C50.1992 22.8391 50.4745 22.6924 50.8187 22.6924C51.1628 22.6924 51.4381 22.8391 51.4381 23.0151C51.4381 23.1911 51.1628 23.3378 50.8187 23.3378ZM45.3469 60.4805C45.6222 60.1871 45.8631 59.8937 46.1384 59.6297C46.1729 57.9574 46.2417 56.0797 46.2761 54.0553C45.932 53.7619 45.5534 53.4686 45.1404 53.1458C45.0028 53.0578 44.8996 52.9405 44.7619 52.8525C44.5898 52.7058 44.4178 52.5884 44.2457 52.471C43.2821 53.2339 41.3894 54.9355 41.3894 56.4024C41.3894 58.1334 43.351 59.8937 44.8307 61.1553C44.9684 60.8912 45.1404 60.6859 45.3469 60.4805ZM45.1404 53.4979C45.2093 55.9917 45.2437 58.2801 45.2781 60.2458C44.1425 58.9549 42.938 57.6346 42.938 56.7251C42.938 55.8743 43.523 54.9062 45.1404 53.4979ZM45.932 31.3766C39.2213 28.6188 37.8448 27.3572 37.8448 26.7411C37.8448 26.125 38.6019 25.7436 38.6019 25.7436C39.2558 25.8609 39.8064 25.8609 40.942 25.3915C42.3186 24.8341 42.8003 24.2767 42.9724 23.8366C42.7659 23.8366 42.5939 23.7779 42.5939 23.7192C42.5939 23.6606 42.8003 23.6019 43.0412 23.6019V23.5725C43.0756 23.1325 42.9036 21.9883 39.7376 22.1643C36.6059 22.3403 36.5371 23.9833 36.5371 23.9833C36.5371 23.9833 33.3711 25.7142 35.0229 28.6481C36.4683 31.2593 43.2477 32.6382 47.1708 34.1344C51.0596 35.6307 50.8187 36.9216 50.8187 36.9216C50.8187 38.0365 48.2032 39.21 46.1384 40.4422C44.0736 41.6744 39.7031 43.8162 39.7031 46.3393C39.7031 48.657 42.4218 50.4467 45.0716 52.4417C47.7559 54.4367 48.6162 55.6396 48.6162 56.7545C48.6162 58.2801 45.6567 60.3338 44.1425 62.8862C42.6283 65.4387 45.6222 69.3994 44.6931 67.3164C43.7295 65.2333 44.2457 63.7664 45.4846 62.2995C46.9988 60.5098 50.2336 58.7495 50.2336 56.3731C50.2336 54.3781 46.8267 52.031 46.8267 52.031C43.7983 49.4492 41.8712 47.9823 41.8712 46.6914C41.8712 45.4004 43.3165 44.2562 47.3773 41.9972C51.4037 39.7674 53.7782 38.8873 53.7782 36.7162C53.7782 34.8092 52.6426 34.1344 45.932 31.3766ZM40.7699 22.7217C41.1141 22.7217 41.3894 22.8684 41.3894 23.0444C41.3894 23.2205 41.1141 23.3672 40.7699 23.3672C40.4258 23.3672 40.1505 23.2205 40.1505 23.0444C40.1505 22.8684 40.4258 22.7217 40.7699 22.7217ZM123.637 45.2244L118.992 53.7913H120.953L121.986 51.8256H127.148L128.18 53.7913H130.176L125.53 45.2244H123.637ZM122.639 50.564L124.567 46.838L126.494 50.564H122.639Z" fill="white"/>
</svg>