<svg xmlns="http://www.w3.org/2000/svg" width="126" height="109" viewBox="0 0 126 109" fill="none">
<path d="M76.4608 105.565C74.819 103.661 74.0017 101.334 74.0088 98.583C74.0159 95.8322 74.8029 93.4679 76.3697 91.4901L98.4251 63.5557L9.13406 65.6159C6.86508 65.6682 4.94252 64.7806 3.36637 62.953C1.79022 61.1254 0.976418 58.8401 0.924958 56.0971C0.868025 53.3478 1.58905 51.0238 3.08804 49.1253C4.58703 47.2267 6.4684 46.2546 8.73218 46.2088L98.0232 44.1486L74.6272 17.0202C72.9854 15.1164 72.1369 12.8287 72.0815 10.157C72.0262 7.48532 72.7793 5.16387 74.3409 3.19269C75.9023 1.21503 77.7855 0.200764 79.9904 0.149891C82.1954 0.0990172 84.1161 1.02551 85.7525 2.92939L123.309 46.4777C124.13 47.4295 124.72 48.4676 125.08 49.592C125.44 50.7163 125.631 51.9254 125.652 53.2193C125.679 54.5131 125.536 55.7299 125.223 56.8698C124.91 58.0096 124.366 59.0739 123.59 60.0626L87.6773 105.549C86.2459 107.362 84.4305 108.293 82.2309 108.344C80.0313 108.395 78.108 107.468 76.4608 105.565Z" fill="#FFCC00"/>
</svg>